# Blender 5.1.1
# www.blender.org
mtllib campfire.mtl
o defaultMaterial
v -0.267528 -0.007847 -0.094810
v -0.644745 0.045600 -0.252300
v -0.668395 0.043218 -0.217784
v -0.291179 -0.010229 -0.060295
v -0.691795 0.009175 -0.210725
v -0.314579 -0.044272 -0.053235
v -0.691545 -0.022487 -0.238181
v -0.314328 -0.075934 -0.080691
v -0.667894 -0.020105 -0.272697
v -0.290677 -0.073552 -0.115207
v -0.668395 0.043218 -0.217784
v -0.644745 0.045600 -0.252300
v -0.644494 0.013939 -0.279756
v -0.691795 0.009175 -0.210725
v -0.290677 -0.073552 -0.115207
v -0.667894 -0.020105 -0.272697
v -0.644494 0.013939 -0.279756
v -0.267277 -0.039508 -0.122267
v 0.841404 -0.267751 0.363077
v 0.817753 -0.270133 0.397593
v 0.794353 -0.304176 0.404652
v 0.794604 -0.335838 0.377196
v 0.818254 -0.333456 0.342680
v 0.841654 -0.299412 0.335621
v 0.475797 -0.196184 0.185422
v 0.475546 -0.164522 0.212878
v 0.135687 -0.088777 -0.041328
v 0.135436 -0.057115 -0.013872
v 0.818254 -0.333456 0.342680
v 0.452397 -0.230228 0.192481
v 0.112287 -0.122820 -0.034268
v 0.794604 -0.335838 0.377196
v 0.428746 -0.232610 0.226997
v 0.452397 -0.230228 0.192481
v 0.818254 -0.333456 0.342680
v 0.088636 -0.125202 0.000247
v 0.112287 -0.122820 -0.034268
v 0.794353 -0.304176 0.404652
v 0.428496 -0.200948 0.254453
v 0.088386 -0.093541 0.027704
v 0.817753 -0.270133 0.397593
v 0.451896 -0.166904 0.247394
v 0.111786 -0.059497 0.020644
v 0.128965 -0.217271 0.604025
v 0.265471 -0.365017 0.963871
v 0.262418 -0.331094 0.988290
v 0.125912 -0.183348 0.628444
v 0.297003 -0.310523 1.000000
v 0.160496 -0.162777 0.640154
v 0.334640 -0.323875 0.987291
v 0.198134 -0.176130 0.627445
v 0.337693 -0.357798 0.962873
v 0.201187 -0.210053 0.603026
v 0.262418 -0.331094 0.988290
v 0.303109 -0.378369 0.951163
v 0.337693 -0.357798 0.962873
v 0.334640 -0.323875 0.987291
v 0.297003 -0.310523 1.000000
v 0.303109 -0.378369 0.951163
v 0.166602 -0.230623 0.591316
v 0.166602 -0.230623 0.591316
v -0.181280 0.251395 -0.487323
v -0.184333 0.285318 -0.462904
v -0.149749 0.305888 -0.451194
v -0.112111 0.292536 -0.463903
v -0.109058 0.258613 -0.488321
v -0.143643 0.238042 -0.500031
v -0.143643 0.238042 -0.500031
v -0.056773 0.077582 -0.134281
v -0.094411 0.090934 -0.121572
v 0.046606 -0.156417 0.202147
v 0.008968 -0.143065 0.214856
v -0.109058 0.258613 -0.488321
v -0.022189 0.098153 -0.122571
v -0.056773 0.077582 -0.134281
v -0.143643 0.238042 -0.500031
v 0.081190 -0.135846 0.213857
v 0.046606 -0.156417 0.202147
v -0.112111 0.292536 -0.463903
v -0.025242 0.132076 -0.098152
v 0.078137 -0.101923 0.238276
v -0.149749 0.305888 -0.451194
v -0.062879 0.145428 -0.085444
v 0.040500 -0.088571 0.250984
v -0.097464 0.124858 -0.097154
v 0.005915 -0.109142 0.239274
v -0.106165 -0.058486 0.411739
v -0.000736 -0.011478 0.807500
v -0.019139 0.025071 0.816547
v -0.124568 -0.021937 0.420785
v 0.004084 0.059653 0.821149
v -0.101345 0.012644 0.425388
v 0.045710 0.057685 0.816705
v -0.059719 0.010676 0.420944
v 0.064113 0.021136 0.807659
v -0.041316 -0.025873 0.411897
v -0.019139 0.025071 0.816547
v -0.000736 -0.011478 0.807500
v 0.040890 -0.013446 0.803056
v 0.064113 0.021136 0.807659
v 0.040890 -0.013446 0.803056
v -0.064539 -0.060454 0.407295
v -0.064539 -0.060454 0.407295
v 0.040890 -0.013446 0.803056
v -0.336307 -0.144899 -0.790970
v -0.354711 -0.108350 -0.781923
v -0.331488 -0.073769 -0.777320
v -0.289861 -0.075736 -0.781764
v -0.271458 -0.112286 -0.790811
v -0.294681 -0.146867 -0.795414
v -0.294681 -0.146867 -0.795414
v -0.232324 -0.127165 -0.391940
v -0.273951 -0.125197 -0.387496
v -0.336307 -0.144899 -0.790970
v -0.125407 -0.174900 0.014159
v -0.167033 -0.172933 0.018603
v -0.271458 -0.112286 -0.790811
v -0.209101 -0.092583 -0.387338
v -0.232324 -0.127165 -0.391940
v -0.294681 -0.146867 -0.795414
v -0.102184 -0.140319 0.018762
v -0.125407 -0.174900 0.014159
v -0.227505 -0.056034 -0.378291
v -0.120587 -0.103770 0.027808
v -0.269131 -0.054066 -0.373847
v -0.162213 -0.101802 0.032252
v -0.354711 -0.108350 -0.781923
v -0.292354 -0.088648 -0.378449
v -0.185436 -0.136383 0.027649
v -0.233905 -0.158605 -0.195657
v -0.489691 -0.163795 -0.518920
v -0.523814 -0.181305 -0.502027
v -0.268028 -0.176116 -0.178764
v -0.533997 -0.220822 -0.511572
v -0.278211 -0.215632 -0.188310
v -0.510058 -0.242828 -0.538011
v -0.254272 -0.237638 -0.214748
v -0.475935 -0.225318 -0.554904
v -0.220149 -0.220128 -0.231641
v -0.465751 -0.185801 -0.545358
v -0.475935 -0.225318 -0.554904
v -0.510058 -0.242828 -0.538011
v -0.533997 -0.220822 -0.511572
v -0.220149 -0.220128 -0.231641
v -0.475935 -0.225318 -0.554904
v -0.465751 -0.185801 -0.545358
v -0.209965 -0.180612 -0.222095
v 0.556991 -0.237447 0.739868
v 0.522868 -0.254958 0.756761
v 0.512685 -0.294474 0.747216
v 0.536624 -0.316480 0.720777
v 0.570747 -0.298970 0.703884
v 0.580931 -0.259453 0.713430
v 0.580931 -0.259453 0.713430
v 0.313376 -0.217438 0.407299
v 0.289436 -0.195432 0.433737
v 0.100078 -0.144473 0.049798
v 0.076138 -0.122467 0.076237
v 0.570747 -0.298970 0.703884
v 0.303192 -0.256954 0.397753
v 0.089894 -0.183990 0.040253
v 0.536624 -0.316480 0.720777
v 0.269069 -0.274464 0.414646
v 0.303192 -0.256954 0.397753
v 0.570747 -0.298970 0.703884
v 0.055771 -0.201500 0.057146
v 0.089894 -0.183990 0.040253
v 0.512685 -0.294474 0.747216
v 0.245130 -0.252458 0.441084
v 0.031832 -0.179494 0.083584
v 0.255313 -0.212942 0.450630
v 0.042015 -0.139977 0.093130
v -0.670018 -0.321631 0.331724
v -0.251936 1.127978 -0.021992
v -0.152987 1.110611 0.023789
v -0.571069 -0.338998 0.377505
v -0.571069 -0.338998 0.377505
v -0.152987 1.110611 0.023789
v -0.086726 1.113040 0.112062
v -0.504808 -0.336569 0.465778
v -0.070908 1.134614 0.219173
v -0.488990 -0.314995 0.572889
v -0.109770 1.169552 0.316423
v -0.527853 -0.280057 0.670139
v -0.192901 1.208493 0.377752
v -0.610984 -0.241116 0.731469
v -0.298025 1.241002 0.386729
v -0.716108 -0.208607 0.740446
v -0.396974 1.258369 0.340948
v -0.815057 -0.191240 0.694664
v -0.463235 1.255940 0.252676
v -0.881318 -0.193669 0.606392
v -0.479054 1.234367 0.145564
v -0.897136 -0.215243 0.499281
v -0.440191 1.199428 0.048314
v -0.858273 -0.250181 0.402031
v -0.251936 1.127978 -0.021992
v -0.357060 1.160487 -0.013016
v -0.440191 1.199428 0.048314
v -0.479054 1.234367 0.145564
v -0.463235 1.255940 0.252676
v -0.396974 1.258369 0.340948
v -0.298025 1.241002 0.386729
v -0.192901 1.208493 0.377752
v -0.109770 1.169552 0.316423
v -0.070908 1.134614 0.219173
v -0.357060 1.160487 -0.013016
v -0.775143 -0.289122 0.340701
v -0.670018 -0.321631 0.331724
v -0.488990 -0.314995 0.572889
v -0.527853 -0.280057 0.670139
v -0.610984 -0.241116 0.731469
v -0.716108 -0.208607 0.740446
v -0.815057 -0.191240 0.694664
v -0.881318 -0.193669 0.606392
v -0.897136 -0.215243 0.499281
v -0.858273 -0.250181 0.402031
v -0.775143 -0.289122 0.340701
v 0.505072 -0.305419 0.514236
v 0.037983 1.051376 -0.070750
v 0.140659 1.090820 -0.061249
v 0.607748 -0.265976 0.523737
v 0.217975 1.142928 -0.002126
v 0.685064 -0.213868 0.582860
v 0.249213 1.193737 0.090778
v 0.716302 -0.163058 0.675764
v 0.226004 1.229635 0.192568
v 0.693093 -0.127161 0.777554
v 0.154567 1.241001 0.275970
v 0.621656 -0.115795 0.860956
v 0.054042 1.224790 0.318637
v 0.521131 -0.132005 0.903623
v -0.048634 1.185346 0.309136
v 0.418455 -0.171449 0.894122
v -0.125950 1.133239 0.250013
v 0.341139 -0.223557 0.834999
v -0.157189 1.082429 0.157110
v 0.309900 -0.274366 0.742096
v -0.133980 1.046532 0.055320
v 0.333109 -0.310264 0.640306
v 0.140659 1.090820 -0.061249
v -0.062542 1.035166 -0.028082
v -0.133980 1.046532 0.055320
v -0.157189 1.082429 0.157110
v -0.125950 1.133239 0.250013
v -0.048634 1.185346 0.309136
v 0.054042 1.224790 0.318637
v 0.154567 1.241001 0.275970
v 0.226004 1.229635 0.192568
v 0.249213 1.193737 0.090778
v 0.217975 1.142928 -0.002126
v -0.062542 1.035166 -0.028082
v 0.404547 -0.321630 0.556904
v 0.404547 -0.321630 0.556904
v 0.505072 -0.305419 0.514236
v 0.607748 -0.265976 0.523737
v 0.685064 -0.213868 0.582860
v 0.716302 -0.163058 0.675764
v 0.693093 -0.127161 0.777554
v 0.621656 -0.115795 0.860956
v 0.521131 -0.132005 0.903623
v 0.418455 -0.171449 0.894122
v 0.341139 -0.223557 0.834999
v 0.309900 -0.274366 0.742096
v 0.093715 -0.112576 -1.000000
v -0.082609 1.238473 -0.261858
v 0.021641 1.232496 -0.226016
v 0.197965 -0.118552 -0.964158
v 0.094876 1.200452 -0.149870
v 0.271200 -0.150597 -0.888012
v 0.117473 1.150926 -0.053823
v 0.293797 -0.200123 -0.791965
v 0.083377 1.097188 0.036389
v 0.259701 -0.253860 -0.701752
v 0.001723 1.053639 0.096594
v 0.178047 -0.297409 -0.641547
v -0.105608 1.031947 0.110660
v 0.070716 -0.319102 -0.627481
v 0.070716 -0.319102 -0.627481
v -0.105608 1.031947 0.110660
v -0.209859 1.037923 0.074818
v -0.033535 -0.313125 -0.663323
v -0.283094 1.069967 -0.001328
v -0.106770 -0.281081 -0.739470
v -0.305691 1.119494 -0.097375
v -0.129367 -0.231555 -0.835517
v -0.271594 1.173231 -0.187587
v -0.095270 -0.177818 -0.925729
v 0.021641 1.232496 -0.226016
v -0.082609 1.238473 -0.261858
v -0.189941 1.216780 -0.247792
v -0.283094 1.069967 -0.001328
v -0.209859 1.037923 0.074818
v -0.105608 1.031947 0.110660
v 0.001723 1.053639 0.096594
v 0.083377 1.097188 0.036389
v 0.117473 1.150926 -0.053823
v 0.094876 1.200452 -0.149870
v -0.189941 1.216780 -0.247792
v -0.013617 -0.134268 -0.985934
v 0.093715 -0.112576 -1.000000
v 0.197965 -0.118552 -0.964158
v 0.271200 -0.150597 -0.888012
v 0.293797 -0.200123 -0.791965
v 0.259701 -0.253860 -0.701752
v -0.033535 -0.313125 -0.663323
v -0.106770 -0.281081 -0.739470
v -0.129367 -0.231555 -0.835517
v -0.095270 -0.177818 -0.925729
v -0.013617 -0.134268 -0.985934
v -0.279841 -0.162001 0.103592
v -0.674848 -0.187001 0.218903
v -0.670888 -0.196171 0.259605
v -0.275881 -0.171172 0.144293
v -0.679369 -0.234864 0.273289
v -0.284363 -0.209865 0.157977
v -0.691811 -0.264387 0.246271
v -0.296805 -0.239388 0.130960
v -0.296805 -0.239388 0.130960
v -0.691811 -0.264387 0.246271
v -0.695772 -0.255217 0.205570
v -0.300765 -0.230218 0.090259
v -0.670888 -0.196171 0.259605
v -0.674848 -0.187001 0.218903
v -0.687290 -0.216524 0.191886
v -0.691811 -0.264387 0.246271
v -0.679369 -0.234864 0.273289
v -0.292283 -0.191525 0.076575
v 0.893176 -0.188356 -0.257346
v 0.897136 -0.197526 -0.216645
v 0.888655 -0.236219 -0.202961
v 0.876213 -0.265742 -0.229978
v 0.872252 -0.256572 -0.270679
v 0.880734 -0.217879 -0.284363
v 0.491729 -0.192202 -0.161550
v 0.504171 -0.162679 -0.134533
v 0.893176 -0.188356 -0.257346
v 0.087458 -0.176933 -0.068350
v 0.099900 -0.147410 -0.041332
v 0.483247 -0.230896 -0.147866
v 0.078976 -0.215627 -0.054666
v 0.876213 -0.265742 -0.229978
v 0.487207 -0.240066 -0.107165
v 0.082937 -0.224796 -0.013964
v 0.888655 -0.236219 -0.202961
v 0.499649 -0.210542 -0.080148
v 0.487207 -0.240066 -0.107165
v 0.876213 -0.265742 -0.229978
v 0.095379 -0.195273 0.013053
v 0.082937 -0.224796 -0.013964
v 0.897136 -0.197526 -0.216645
v 0.508131 -0.171849 -0.093832
v 0.103861 -0.156580 -0.000631
vn -0.0798 0.7656 0.6383
vn 0.2149 0.9261 -0.3101
vn -0.1861 0.8623 -0.4710
vn -0.5545 0.8033 0.2172
vn -0.3168 -0.1519 0.9363
vn -0.9000 0.1082 0.4222
vn -0.2310 -0.9050 0.3572
vn -0.8561 -0.5104 -0.0813
vn 0.0845 -0.8070 -0.5845
vn -0.4562 -0.4455 -0.7703
vn -0.5544 0.8034 0.2173
vn -0.1861 0.8623 -0.4709
vn -0.1215 0.2591 -0.9582
vn 0.2986 0.1695 -0.9392
vn 0.0845 -0.8070 -0.5844
vn -0.4562 -0.4456 -0.7703
vn -0.1216 0.2591 -0.9582
vn 0.8960 -0.1411 -0.4211
vn 0.8793 0.4668 0.0948
vn 0.4806 0.3956 0.7826
vn 0.1145 -0.2898 0.9502
vn 0.1362 -0.8848 0.4457
vn 0.5164 -0.8210 -0.2436
vn 0.4867 0.0970 -0.8682
vn 0.3891 0.8900 -0.2379
vn 0.4083 0.1365 -0.9026
vn 0.3339 0.8815 -0.3338
vn 0.5164 -0.8210 -0.2435
vn 0.0762 -0.8080 -0.5842
vn 0.0909 -0.7437 -0.6624
vn 0.5165 -0.8209 -0.2436
vn -0.4119 -0.8664 0.2823
vn -0.2894 -0.9207 0.2618
vn 0.0909 -0.7436 -0.6624
vn -0.4911 -0.0885 0.8666
vn -0.3882 -0.1203 0.9137
vn 0.4806 0.3955 0.7827
vn -0.0931 0.7757 0.6242
vn -0.0719 0.8312 0.5513
vn -0.8763 0.3028 0.3748
vn -0.7580 -0.6485 0.0693
vn -0.5108 -0.7537 0.4136
vn -0.5956 -0.0779 0.7995
vn -0.1139 0.9378 0.3280
vn 0.0444 0.3919 0.9189
vn 0.7275 0.6847 -0.0434
vn 0.7545 0.1597 0.6366
vn 0.8905 -0.2375 -0.3880
vn 0.8242 -0.5206 0.2227
vn 0.0444 0.3920 0.9189
vn -0.5957 -0.0779 0.7994
vn 0.1732 -0.9778 0.1181
vn 0.7546 0.1597 0.6365
vn 0.1057 -0.9463 -0.3054
vn -0.0148 -0.3783 -0.9256
vn -0.7294 -0.1318 -0.6713
vn -0.7935 0.5498 -0.2608
vn -0.1413 0.9824 -0.1219
vn 0.5562 0.7412 -0.3759
vn 0.6332 0.0620 -0.7715
vn -0.0149 -0.3783 -0.9256
vn 0.0803 -0.8622 -0.5003
vn -0.8110 -0.5764 -0.1006
vn 0.0846 -0.9052 -0.4164
vn -0.7497 -0.6592 -0.0592
vn 0.6332 0.0621 -0.7715
vn 0.8941 -0.2365 -0.3804
vn 0.0803 -0.8622 -0.5002
vn 0.8626 -0.3338 -0.3801
vn 0.5561 0.7412 -0.3759
vn 0.7814 0.6096 0.1334
vn 0.7959 0.6054 -0.0013
vn -0.0855 0.8577 0.5070
vn -0.1093 0.9084 0.4036
vn -0.8754 0.2865 0.3893
vn -0.9033 0.1971 0.3811
vn -0.9816 0.0660 0.1791
vn -0.5077 -0.8162 0.2759
vn -0.3102 -0.6968 0.6467
vn -0.6799 -0.0123 0.7332
vn -0.4698 0.8799 -0.0705
vn -0.2603 0.6711 0.6941
vn 0.4628 0.8451 -0.2678
vn 0.5269 0.6363 0.5634
vn 0.9764 -0.0090 -0.2160
vn 0.8893 -0.0674 0.4523
vn -0.6800 -0.0123 0.7331
vn -0.3103 -0.6968 0.6467
vn 0.4525 -0.7388 0.4993
vn 0.8894 -0.0674 0.4522
vn 0.4607 -0.8825 0.0942
vn 0.4525 -0.7388 0.4994
vn 0.4607 -0.8825 0.0941
vn 0.4526 -0.7388 0.4994
vn 0.2847 -0.6507 -0.7039
vn -0.5059 -0.6149 -0.6050
vn -0.8630 0.0909 -0.4970
vn -0.4237 0.7533 -0.5030
vn 0.3491 0.7158 -0.6047
vn 0.7146 0.0222 -0.6992
vn 0.2846 -0.6507 -0.7040
vn 0.4472 -0.8865 -0.1192
vn -0.5476 -0.8320 0.0887
vn 0.4491 -0.8932 -0.0251
vn -0.4720 -0.8665 0.1623
vn 0.7145 0.0222 -0.6993
vn 0.9779 -0.0042 -0.2093
vn 0.4472 -0.8865 -0.1191
vn 0.9799 -0.0997 -0.1727
vn 0.5032 0.8611 -0.0731
vn 0.5437 0.8164 -0.1945
vn -0.4519 0.8830 0.1268
vn -0.4706 0.8823 0.0107
vn -0.9783 0.0573 0.1989
vn -0.9739 -0.0330 0.2247
vn -0.6276 0.5200 0.5795
vn -0.0139 0.9982 -0.0585
vn -0.2458 0.8789 -0.4088
vn -0.8378 0.5456 -0.0199
vn -0.6292 -0.4726 0.6170
vn -0.9652 -0.2435 -0.0949
vn -0.0281 -0.9953 0.0923
vn -0.4806 -0.6722 -0.5632
vn 0.6217 -0.5717 -0.5354
vn 0.1355 -0.3252 -0.9359
vn -0.9653 -0.2435 -0.0948
vn 0.2428 0.4655 -0.8511
vn 0.6094 0.4851 -0.6272
vn 0.1354 -0.3252 -0.9359
vn 0.2428 0.4654 -0.8511
vn 0.9732 0.2116 0.0902
vn 0.5090 0.6341 0.5821
vn -0.1033 0.2817 0.9539
vn -0.2341 -0.4936 0.8376
vn 0.2245 -0.9059 0.3592
vn 0.8250 -0.5647 -0.0239
vn 0.7567 0.4470 -0.4770
vn 0.1085 0.9901 0.0892
vn 0.6942 0.4728 -0.5427
vn 0.1099 0.9937 -0.0217
vn 0.8249 -0.5647 -0.0239
vn 0.6152 -0.5748 -0.5396
vn 0.6397 -0.4904 -0.5919
vn 0.2246 -0.9058 0.3592
vn -0.1557 -0.9859 -0.0608
vn -0.0270 -0.9994 -0.0206
vn 0.6397 -0.4903 -0.5919
vn -0.7626 -0.4399 0.4742
vn -0.6885 -0.4556 0.5642
vn -0.6355 0.5298 0.5616
vn -0.6050 0.6062 0.5162
vn 0.2568 -0.8734 -0.4138
vn -0.0945 -0.8117 -0.5764
vn 0.2581 0.4105 -0.8746
vn 0.6093 0.3488 -0.7121
vn 0.4921 -0.8647 -0.1005
vn 0.6094 0.3488 -0.7120
vn 0.8446 0.3573 -0.3987
vn 0.5482 -0.7882 0.2798
vn 0.9007 0.4341 -0.0184
vn 0.4102 -0.6641 0.6250
vn 0.7627 0.5581 0.3268
vn 0.1151 -0.5259 0.8427
vn 0.4676 0.6963 0.5445
vn -0.2581 -0.4105 0.8746
vn 0.0945 0.8117 0.5764
vn -0.6094 -0.3489 0.7120
vn -0.2568 0.8734 0.4138
vn -0.8446 -0.3575 0.3987
vn -0.4920 0.8648 0.1005
vn -0.9007 -0.4341 0.0184
vn -0.5482 0.7882 -0.2798
vn -0.7627 -0.5581 -0.3268
vn -0.4102 0.6642 -0.6250
vn 0.2581 0.4104 -0.8746
vn -0.1151 0.5258 -0.8428
vn -0.4103 0.6641 -0.6251
vn -0.5483 0.7881 -0.2798
vn -0.4921 0.8647 0.1005
vn -0.2569 0.8734 0.4138
vn 0.4677 0.6962 0.5445
vn 0.7627 0.5580 0.3269
vn 0.9007 0.4340 -0.0184
vn -0.4677 -0.6963 -0.5445
vn -0.1152 0.5259 -0.8427
vn -0.4677 -0.6962 -0.5446
vn 0.5483 -0.7881 0.2797
vn 0.4103 -0.6641 0.6250
vn 0.1152 -0.5259 0.8427
vn -0.2580 -0.4104 0.8746
vn -0.6093 -0.3488 0.7121
vn -0.8446 -0.3574 0.3987
vn -0.9007 -0.4340 0.0185
vn -0.7628 -0.5580 -0.3268
vn 0.5329 -0.7398 -0.4108
vn 0.1684 -0.8798 -0.4445
vn -0.2254 0.2641 -0.9378
vn 0.1390 0.4042 -0.9040
vn 0.8074 -0.5547 -0.2009
vn 0.4136 0.5892 -0.6941
vn 0.9183 -0.3744 0.1289
vn 0.5244 0.7695 -0.3644
vn 0.8359 -0.2470 0.4902
vn 0.4421 0.8970 -0.0030
vn 0.5823 -0.2066 0.7863
vn 0.1885 0.9373 0.2930
vn 0.2254 -0.2642 0.9378
vn -0.1684 0.8798 0.4445
vn -0.1390 -0.4042 0.9040
vn -0.5329 0.7398 0.4108
vn -0.4136 -0.5892 0.6941
vn -0.8074 0.5548 0.2010
vn -0.5244 -0.7695 0.3644
vn -0.9183 0.3744 -0.1289
vn -0.4421 -0.8970 0.0030
vn -0.8359 0.2470 -0.4903
vn 0.1392 0.4041 -0.9040
vn -0.5822 0.2066 -0.7863
vn -0.8359 0.2469 -0.4903
vn -0.9183 0.3743 -0.1289
vn -0.8074 0.5547 0.2010
vn -0.5329 0.7397 0.4109
vn -0.1684 0.8798 0.4446
vn 0.1885 0.9373 0.2931
vn 0.4421 0.8969 -0.0030
vn 0.5245 0.7695 -0.3643
vn -0.1885 -0.9373 -0.2931
vn -0.5823 0.2066 -0.7863
vn 0.1683 -0.8798 -0.4446
vn 0.5329 -0.7397 -0.4109
vn 0.8074 -0.5547 -0.2010
vn 0.9183 -0.3743 0.1288
vn 0.8359 -0.2469 0.4903
vn 0.5822 -0.2065 0.7863
vn 0.2254 -0.2641 0.9378
vn -0.1391 -0.4041 0.9041
vn -0.4136 -0.5891 0.6942
vn -0.5245 -0.7695 0.3644
vn 0.4853 -0.2242 -0.8451
vn 0.1152 -0.2030 -0.9724
vn -0.0335 0.9361 -0.3501
vn 0.3365 0.9149 -0.2228
vn 0.7452 -0.3380 -0.5748
vn 0.5965 0.8012 0.0475
vn 0.8254 -0.5138 -0.2339
vn 0.6768 0.6254 0.3885
vn 0.7044 -0.7045 0.0863
vn 0.5557 0.4345 0.7087
vn 0.4145 -0.8591 0.3002
vn 0.2659 0.2799 0.9225
vn 0.0335 -0.9361 0.3500
vn -0.1152 0.2030 0.9724
vn -0.3365 -0.9149 0.2228
vn -0.1151 0.2030 0.9724
vn -0.4853 0.2242 0.8451
vn -0.5966 -0.8012 -0.0475
vn -0.7452 0.3380 0.5748
vn -0.6768 -0.6254 -0.3885
vn -0.8255 0.5137 0.2338
vn -0.5558 -0.4346 -0.7087
vn -0.7044 0.7045 -0.0864
vn 0.5966 0.8011 0.0475
vn 0.3366 0.9149 -0.2228
vn -0.4145 0.8591 -0.3002
vn -0.7453 0.3379 0.5748
vn -0.4853 0.2241 0.8451
vn -0.1152 0.2029 0.9724
vn 0.5558 0.4345 0.7088
vn 0.6768 0.6253 0.3885
vn -0.2659 -0.2799 -0.9225
vn -0.4145 0.8591 -0.3001
vn 0.1151 -0.2029 -0.9724
vn 0.4853 -0.2241 -0.8451
vn 0.7452 -0.3379 -0.5749
vn 0.8255 -0.5137 -0.2339
vn 0.7045 -0.7045 0.0864
vn -0.3366 -0.9149 0.2229
vn -0.5966 -0.8011 -0.0474
vn -0.6768 -0.6253 -0.3884
vn -0.5558 -0.4345 -0.7087
vn 0.1924 0.7177 0.6692
vn -0.1280 0.9628 -0.2381
vn -0.5639 0.8195 -0.1022
vn -0.4044 0.6486 0.6448
vn 0.3155 -0.2515 0.9150
vn -0.4384 -0.1148 0.8914
vn 0.1376 -0.9553 0.2618
vn -0.6308 -0.6844 0.3656
vn -0.1812 -0.7286 -0.6606
vn 0.1376 -0.9553 0.2617
vn -0.7676 -0.5006 -0.4002
vn -0.4383 -0.1148 0.8915
vn -0.4044 0.6486 0.6449
vn -0.7327 0.2687 -0.6252
vn -0.3235 0.2680 -0.9075
vn 0.4407 0.0818 -0.8939
vn 0.6634 0.6465 -0.3768
vn 0.8013 0.4568 0.3863
vn 0.7267 -0.2998 0.6180
vn 0.5131 -0.8514 0.1088
vn 0.3614 -0.6729 -0.6454
vn -0.2446 0.2579 -0.9347
vn -0.0223 0.9633 -0.2675
vn -0.2782 0.2595 -0.9248
vn -0.0812 0.9560 -0.2818
vn -0.2135 -0.7256 -0.6542
vn -0.2150 -0.7037 -0.6772
vn 0.5132 -0.8514 0.1088
vn 0.0306 -0.9561 0.2915
vn 0.0792 -0.9656 0.2476
vn 0.7268 -0.2998 0.6180
vn 0.2405 -0.2423 0.9399
vn 0.2855 -0.2513 0.9248
vn 0.2203 0.7158 0.6627
vn 0.1893 0.7402 0.6453
vt 0.577658 0.382146
vt 0.580670 0.372660
vt 0.482749 0.371193
vt 0.480722 0.381093
vt 0.573994 0.391042
vt 0.477213 0.390707
vt 0.573024 0.400691
vt 0.475749 0.400693
vt 0.575824 0.410091
vt 0.477748 0.410593
vt 0.466175 0.397474
vt 0.458601 0.404156
vt 0.460600 0.414056
vt 0.470174 0.417275
vt 0.579800 0.362231
vt 0.575932 0.352801
vt 0.478056 0.352228
vt 0.481397 0.361600
vt 0.876215 0.361984
vt 0.876649 0.371776
vt 0.885347 0.376296
vt 0.893610 0.371024
vt 0.893175 0.361232
vt 0.884478 0.356712
vt 0.778953 0.362257
vt 0.780012 0.372312
vt 0.680806 0.362217
vt 0.681723 0.371806
vt 0.873988 0.352593
vt 0.776928 0.352228
vt 0.677988 0.352925
vt 0.873748 0.411055
vt 0.871965 0.401340
vt 0.776467 0.400725
vt 0.777422 0.410308
vt 0.675533 0.402235
vt 0.677671 0.412218
vt 0.872468 0.391202
vt 0.777365 0.391363
vt 0.676530 0.391600
vt 0.874812 0.381412
vt 0.779144 0.381971
vt 0.679736 0.381500
vt 0.883023 0.328530
vt 0.880218 0.337969
vt 0.977044 0.338350
vt 0.978981 0.328504
vt 0.886507 0.319667
vt 0.982388 0.318918
vt 0.887326 0.310095
vt 0.983755 0.308982
vt 0.884397 0.300801
vt 0.981681 0.299170
vt 0.993983 0.335865
vt 0.984796 0.332218
vt 0.978479 0.348130
vt 0.987665 0.351777
vt 0.995418 0.345645
vt 0.880480 0.291390
vt 0.978229 0.290067
vt 0.881248 0.347963
vt 0.573628 0.345372
vt 0.582788 0.342054
vt 0.584495 0.332461
vt 0.577041 0.326187
vt 0.567880 0.329506
vt 0.566173 0.339098
vt 0.583344 0.351777
vt 0.679553 0.350564
vt 0.678502 0.340595
vt 0.779167 0.351104
vt 0.778078 0.341099
vt 0.582920 0.293566
vt 0.585243 0.303117
vt 0.680857 0.302832
vt 0.678790 0.293212
vt 0.781800 0.299844
vt 0.778750 0.290246
vt 0.587096 0.312615
vt 0.681892 0.312343
vt 0.784035 0.309863
vt 0.586708 0.322707
vt 0.681059 0.321657
vt 0.783145 0.320754
vt 0.679331 0.331001
vt 0.779995 0.331134
vt 0.879773 0.205788
vt 0.876937 0.215212
vt 0.973707 0.215927
vt 0.975677 0.206093
vt 0.883285 0.196943
vt 0.979116 0.196524
vt 0.884137 0.187379
vt 0.980516 0.186599
vt 0.881241 0.178080
vt 0.978477 0.176785
vt 0.987011 0.202699
vt 0.996307 0.198949
vt 0.997707 0.189024
vt 0.989811 0.182848
vt 0.877359 0.168661
vt 0.975058 0.167675
vt 0.877932 0.225205
vt 0.975107 0.225707
vt 0.566595 0.188132
vt 0.566173 0.198218
vt 0.574697 0.203626
vt 0.583642 0.198949
vt 0.584064 0.188863
vt 0.575541 0.183455
vt 0.579658 0.218271
vt 0.580180 0.227991
vt 0.676339 0.227110
vt 0.675323 0.217143
vt 0.775897 0.227993
vt 0.774843 0.217990
vt 0.579957 0.169811
vt 0.582245 0.179365
vt 0.677807 0.179409
vt 0.675774 0.169787
vt 0.778705 0.176770
vt 0.775689 0.167167
vt 0.678808 0.188919
vt 0.780904 0.186791
vt 0.677944 0.198224
vt 0.779977 0.197673
vt 0.581396 0.208690
vt 0.676185 0.207557
vt 0.776793 0.208036
vt 0.680226 0.258952
vt 0.683294 0.249484
vt 0.585386 0.247436
vt 0.583300 0.257324
vt 0.676509 0.267826
vt 0.579734 0.266917
vt 0.675483 0.277469
vt 0.578211 0.276893
vt 0.678227 0.286885
vt 0.580151 0.286805
vt 0.573694 0.260461
vt 0.577865 0.240685
vt 0.568259 0.243823
vt 0.566173 0.253711
vt 0.682486 0.239051
vt 0.678674 0.229598
vt 0.580805 0.228443
vt 0.584090 0.237835
vt 0.988551 0.247185
vt 0.979269 0.250357
vt 0.977374 0.259981
vt 0.984762 0.266435
vt 0.994044 0.263263
vt 0.995939 0.253639
vt 0.978892 0.240562
vt 0.881631 0.240258
vt 0.882631 0.250319
vt 0.783487 0.239636
vt 0.784347 0.249230
vt 0.976721 0.231159
vt 0.879666 0.230217
vt 0.780725 0.230327
vt 0.976134 0.289617
vt 0.974409 0.279892
vt 0.878917 0.278711
vt 0.879815 0.288298
vt 0.777977 0.279621
vt 0.780056 0.289617
vt 0.974972 0.269757
vt 0.879871 0.269353
vt 0.779037 0.268993
vt 0.881706 0.259973
vt 0.782304 0.258911
vt 0.607422 0.892313
vt 0.633724 0.892313
vt 0.633722 0.523136
vt 0.607420 0.523136
vt 0.896742 0.892313
vt 0.923044 0.892313
vt 0.923044 0.523136
vt 0.896742 0.523136
vt 0.870440 0.892313
vt 0.870440 0.523136
vt 0.844139 0.892313
vt 0.844138 0.523136
vt 0.817836 0.892313
vt 0.817836 0.523136
vt 0.791534 0.892313
vt 0.791534 0.523136
vt 0.765233 0.892313
vt 0.765232 0.523136
vt 0.738931 0.892313
vt 0.738930 0.523136
vt 0.712629 0.892313
vt 0.712628 0.523136
vt 0.686327 0.892313
vt 0.686326 0.523136
vt 0.945822 0.509985
vt 0.958973 0.487206
vt 0.958974 0.460904
vt 0.945822 0.438126
vt 0.923044 0.424975
vt 0.896742 0.424975
vt 0.873964 0.438126
vt 0.860813 0.460904
vt 0.860813 0.487206
vt 0.873964 0.509985
vt 0.660025 0.892313
vt 0.660024 0.523136
vt 0.958974 0.928242
vt 0.945822 0.905464
vt 0.873964 0.905464
vt 0.860813 0.928242
vt 0.860813 0.954544
vt 0.873964 0.977323
vt 0.896742 0.990474
vt 0.923044 0.990474
vt 0.945822 0.977323
vt 0.958974 0.954544
vt 0.538026 0.890608
vt 0.564327 0.890749
vt 0.566316 0.521577
vt 0.540014 0.521436
vt 0.511724 0.890466
vt 0.513713 0.521294
vt 0.485423 0.890324
vt 0.487411 0.521152
vt 0.459121 0.890183
vt 0.461109 0.521011
vt 0.432820 0.890041
vt 0.434808 0.520869
vt 0.406519 0.889899
vt 0.408506 0.520728
vt 0.380217 0.889758
vt 0.382204 0.520586
vt 0.353916 0.889616
vt 0.355903 0.520444
vt 0.327615 0.889475
vt 0.329601 0.520303
vt 0.301313 0.889333
vt 0.303299 0.520162
vt 0.530581 0.485455
vt 0.543609 0.508304
vt 0.592618 0.521719
vt 0.615466 0.508691
vt 0.628740 0.485984
vt 0.628881 0.459682
vt 0.615853 0.436834
vt 0.593146 0.423560
vt 0.566845 0.423418
vt 0.543996 0.436446
vt 0.530722 0.459154
vt 0.275012 0.889192
vt 0.276998 0.520020
vt 0.590629 0.890891
vt 0.252163 0.902220
vt 0.238890 0.924927
vt 0.238748 0.951229
vt 0.251777 0.974078
vt 0.274484 0.987351
vt 0.300785 0.987493
vt 0.323634 0.974464
vt 0.336907 0.951757
vt 0.337049 0.925455
vt 0.324021 0.902607
vt 0.214399 0.109256
vt 0.188097 0.109171
vt 0.186904 0.478346
vt 0.213206 0.478431
vt 0.240701 0.109341
vt 0.239507 0.478516
vt 0.267002 0.109426
vt 0.265809 0.478601
vt 0.293304 0.109511
vt 0.292111 0.478686
vt 0.319606 0.109596
vt 0.318413 0.478771
vt 0.345908 0.109681
vt 0.344715 0.478856
vt 0.056588 0.108746
vt 0.030286 0.108661
vt 0.029092 0.477835
vt 0.055394 0.477921
vt 0.082891 0.108831
vt 0.081696 0.478006
vt 0.109192 0.108916
vt 0.107998 0.478091
vt 0.135494 0.109001
vt 0.134300 0.478176
vt 0.156803 0.563258
vt 0.170028 0.540523
vt 0.170113 0.514221
vt 0.157036 0.491400
vt 0.085178 0.491168
vt 0.071953 0.513904
vt 0.071868 0.540205
vt 0.084945 0.563026
vt 0.107681 0.576251
vt 0.133983 0.576336
vt 0.161795 0.109086
vt 0.160602 0.478261
vt 0.346225 0.011521
vt 0.319923 0.011436
vt 0.297102 0.024513
vt 0.283878 0.047249
vt 0.283793 0.073551
vt 0.296870 0.096371
vt 0.368728 0.096603
vt 0.381953 0.073868
vt 0.382038 0.047566
vt 0.368960 0.024745
vt 0.683626 0.146730
vt 0.685949 0.137023
vt 0.587135 0.136364
vt 0.585123 0.146320
vt 0.680283 0.156014
vt 0.581634 0.155869
vt 0.679167 0.165970
vt 0.580141 0.165824
vt 0.681407 0.117328
vt 0.679103 0.107502
vt 0.580415 0.107337
vt 0.582349 0.117181
vt 0.566173 0.123012
vt 0.569539 0.132350
vt 0.579310 0.134105
vt 0.585715 0.126520
vt 0.572578 0.115427
vt 0.684861 0.126892
vt 0.976913 0.127037
vt 0.986393 0.129863
vt 0.993581 0.123067
vt 0.991289 0.113444
vt 0.981809 0.110617
vt 0.974621 0.117413
vt 0.977353 0.137021
vt 0.879174 0.127070
vt 0.879998 0.137085
vt 0.781726 0.127079
vt 0.782657 0.136772
vt 0.876764 0.117227
vt 0.778947 0.117791
vt 0.972784 0.107688
vt 0.875203 0.107337
vt 0.777026 0.108126
vt 0.972612 0.166717
vt 0.973098 0.156654
vt 0.876166 0.156514
vt 0.875341 0.166293
vt 0.777732 0.156148
vt 0.776735 0.166175
vt 0.975465 0.146837
vt 0.878468 0.146946
vt 0.780721 0.146490
s 1
usemtl DefaultMaterial
f 4/1/1 1/2/2 2/3/3
f 2/3/3 3/4/4 4/1/1
f 6/5/5 4/1/1 3/4/4
f 3/4/4 5/6/6 6/5/5
f 8/7/7 6/5/5 5/6/6
f 5/6/6 7/8/8 8/7/7
f 10/9/9 8/7/7 7/8/8
f 7/8/8 9/10/10 10/9/9
f 14/11/6 11/12/11 12/13/12
f 14/11/6 12/13/12 13/14/13
f 14/11/6 13/14/13 9/10/10
f 9/10/10 7/8/8 14/11/6
f 18/15/14 15/16/15 16/17/16
f 16/17/16 17/18/17 18/15/14
f 1/2/2 18/15/14 17/18/17
f 17/18/17 2/3/3 1/2/2
f 24/19/18 19/20/19 20/21/20
f 24/19/18 20/21/20 21/22/21
f 24/19/18 21/22/21 22/23/22
f 22/23/22 23/24/23 24/19/18
f 19/20/19 24/19/18 25/25/24
f 25/25/24 26/26/25 19/20/19
f 26/26/25 25/25/24 27/27/26
f 27/27/26 28/28/27 26/26/25
f 28/28/27 27/27/26 18/15/14
f 18/15/14 1/2/2 28/28/27
f 24/19/18 29/29/28 30/30/29
f 30/30/29 25/25/24 24/19/18
f 25/25/24 30/30/29 31/31/30
f 31/31/30 27/27/26 25/25/24
f 27/27/26 31/31/30 15/16/15
f 15/16/15 18/15/14 27/27/26
f 35/32/31 32/33/22 33/34/32
f 33/34/32 34/35/29 35/32/31
f 34/35/29 33/34/32 36/36/33
f 36/36/33 37/37/34 34/35/29
f 37/37/34 36/36/33 8/7/7
f 8/7/7 10/9/9 37/37/34
f 32/33/22 38/38/21 39/39/35
f 39/39/35 33/34/32 32/33/22
f 33/34/32 39/39/35 40/40/36
f 40/40/36 36/36/33 33/34/32
f 36/36/33 40/40/36 6/5/5
f 6/5/5 8/7/7 36/36/33
f 38/38/21 41/41/37 42/42/38
f 42/42/38 39/39/35 38/38/21
f 39/39/35 42/42/38 43/43/39
f 43/43/39 40/40/36 39/39/35
f 40/40/36 43/43/39 4/1/1
f 4/1/1 6/5/5 40/40/36
f 41/41/37 19/20/19 26/26/25
f 26/26/25 42/42/38 41/41/37
f 42/42/38 26/26/25 28/28/27
f 28/28/27 43/43/39 42/42/38
f 43/43/39 28/28/27 1/2/2
f 1/2/2 4/1/1 43/43/39
f 47/44/40 44/45/41 45/46/42
f 45/46/42 46/47/43 47/44/40
f 49/48/44 47/44/40 46/47/43
f 46/47/43 48/49/45 49/48/44
f 51/50/46 49/48/44 48/49/45
f 48/49/45 50/51/47 51/50/46
f 53/52/48 51/50/46 50/51/47
f 50/51/47 52/53/49 53/52/48
f 58/54/50 54/55/51 45/46/42
f 58/54/50 45/46/42 55/56/52
f 58/54/50 55/56/52 56/57/49
f 56/57/49 57/58/53 58/54/50
f 60/59/54 53/52/48 52/53/49
f 52/53/49 59/60/52 60/59/54
f 44/45/41 61/61/54 55/56/52
f 55/56/52 45/46/42 44/45/41
f 67/62/55 62/63/56 63/64/57
f 67/62/55 63/64/57 64/65/58
f 67/62/55 64/65/58 65/66/59
f 65/66/59 66/67/60 67/62/55
f 62/63/56 68/68/61 69/69/62
f 69/69/62 70/70/63 62/63/56
f 70/70/63 69/69/62 71/71/64
f 71/71/64 72/72/65 70/70/63
f 72/72/65 71/71/64 61/61/54
f 61/61/54 44/45/41 72/72/65
f 76/73/61 73/74/66 74/75/67
f 74/75/67 75/76/68 76/73/61
f 75/76/68 74/75/67 77/77/69
f 77/77/69 78/78/64 75/76/68
f 78/78/64 77/77/69 53/52/48
f 53/52/48 60/59/54 78/78/64
f 73/74/66 79/79/70 80/80/71
f 80/80/71 74/75/67 73/74/66
f 74/75/67 80/80/71 81/81/72
f 81/81/72 77/77/69 74/75/67
f 77/77/69 81/81/72 51/50/46
f 51/50/46 53/52/48 77/77/69
f 79/79/70 82/82/58 83/83/73
f 83/83/73 80/80/71 79/79/70
f 80/80/71 83/83/73 84/84/74
f 84/84/74 81/81/72 80/80/71
f 81/81/72 84/84/74 49/48/44
f 49/48/44 51/50/46 81/81/72
f 82/82/58 63/64/57 85/85/75
f 85/85/75 83/83/73 82/82/58
f 83/83/73 85/85/75 86/86/76
f 86/86/76 84/84/74 83/83/73
f 84/84/74 86/86/76 47/44/40
f 47/44/40 49/48/44 84/84/74
f 63/64/57 62/63/56 70/70/63
f 70/70/63 85/85/75 63/64/57
f 85/85/75 70/70/63 72/72/65
f 72/72/65 86/86/76 85/85/75
f 86/86/76 72/72/65 44/45/41
f 44/45/41 47/44/40 86/86/76
f 90/87/77 87/88/78 88/89/79
f 88/89/79 89/90/80 90/87/77
f 92/91/81 90/87/77 89/90/80
f 89/90/80 91/92/82 92/91/81
f 94/93/83 92/91/81 91/92/82
f 91/92/82 93/94/84 94/93/83
f 96/95/85 94/93/83 93/94/84
f 93/94/84 95/96/86 96/95/85
f 91/92/82 97/97/87 98/98/88
f 91/92/82 98/98/88 99/99/89
f 91/92/82 99/99/89 100/100/90
f 100/100/90 93/94/84 91/92/82
f 102/101/91 96/95/85 95/96/86
f 95/96/86 101/102/92 102/101/91
f 87/88/78 103/103/93 104/104/94
f 104/104/94 88/89/79 87/88/78
f 110/105/95 105/106/96 106/107/97
f 110/105/95 106/107/97 107/108/98
f 110/105/95 107/108/98 108/109/99
f 108/109/99 109/110/100 110/105/95
f 114/111/96 111/112/101 112/113/102
f 112/113/102 113/114/103 114/111/96
f 113/114/103 112/113/102 115/115/104
f 115/115/104 116/116/105 113/114/103
f 116/116/105 115/115/104 103/103/93
f 103/103/93 87/88/78 116/116/105
f 120/117/101 117/118/106 118/119/107
f 118/119/107 119/120/108 120/117/101
f 119/120/108 118/119/107 121/121/109
f 121/121/109 122/122/104 119/120/108
f 122/122/104 121/121/109 96/95/85
f 96/95/85 102/101/91 122/122/104
f 117/118/106 108/109/99 123/123/110
f 123/123/110 118/119/107 117/118/106
f 118/119/107 123/123/110 124/124/111
f 124/124/111 121/121/109 118/119/107
f 121/121/109 124/124/111 94/93/83
f 94/93/83 96/95/85 121/121/109
f 108/109/99 107/108/98 125/125/112
f 125/125/112 123/123/110 108/109/99
f 123/123/110 125/125/112 126/126/113
f 126/126/113 124/124/111 123/123/110
f 124/124/111 126/126/113 92/91/81
f 92/91/81 94/93/83 124/124/111
f 107/108/98 127/127/97 128/128/114
f 128/128/114 125/125/112 107/108/98
f 125/125/112 128/128/114 129/129/115
f 129/129/115 126/126/113 125/125/112
f 126/126/113 129/129/115 90/87/77
f 90/87/77 92/91/81 126/126/113
f 127/127/97 114/111/96 113/114/103
f 113/114/103 128/128/114 127/127/97
f 128/128/114 113/114/103 116/116/105
f 116/116/105 129/129/115 128/128/114
f 129/129/115 116/116/105 87/88/78
f 87/88/78 90/87/77 129/129/115
f 133/130/116 130/131/117 131/132/118
f 131/132/118 132/133/119 133/130/116
f 135/134/120 133/130/116 132/133/119
f 132/133/119 134/135/121 135/134/120
f 137/136/122 135/134/120 134/135/121
f 134/135/121 136/137/123 137/136/122
f 139/138/124 137/136/122 136/137/123
f 136/137/123 138/139/125 139/138/124
f 143/140/126 132/133/119 131/132/118
f 143/140/126 131/132/118 140/141/127
f 143/140/126 140/141/127 141/142/125
f 141/142/125 142/143/123 143/140/126
f 147/144/128 144/145/124 145/146/129
f 145/146/129 146/147/130 147/144/128
f 130/131/117 147/144/128 146/147/130
f 146/147/130 131/132/118 130/131/117
f 153/148/131 148/149/132 149/150/133
f 153/148/131 149/150/133 150/151/134
f 153/148/131 150/151/134 151/152/135
f 151/152/135 152/153/136 153/148/131
f 148/149/132 154/154/131 155/155/137
f 155/155/137 156/156/138 148/149/132
f 156/156/138 155/155/137 157/157/139
f 157/157/139 158/158/140 156/156/138
f 158/158/140 157/157/139 147/144/128
f 147/144/128 130/131/117 158/158/140
f 154/154/131 159/159/141 160/160/142
f 160/160/142 155/155/137 154/154/131
f 155/155/137 160/160/142 161/161/143
f 161/161/143 157/157/139 155/155/137
f 157/157/139 161/161/143 144/145/124
f 144/145/124 147/144/128 157/157/139
f 165/162/136 162/163/144 163/164/145
f 163/164/145 164/165/142 165/162/136
f 164/165/142 163/164/145 166/166/146
f 166/166/146 167/167/147 164/165/142
f 167/167/147 166/166/146 137/136/122
f 137/136/122 139/138/124 167/167/147
f 162/163/144 168/168/134 169/169/148
f 169/169/148 163/164/145 162/163/144
f 163/164/145 169/169/148 170/170/149
f 170/170/149 166/166/146 163/164/145
f 166/166/146 170/170/149 135/134/120
f 135/134/120 137/136/122 166/166/146
f 168/168/134 149/150/133 171/171/150
f 171/171/150 169/169/148 168/168/134
f 169/169/148 171/171/150 172/172/151
f 172/172/151 170/170/149 169/169/148
f 170/170/149 172/172/151 133/130/116
f 133/130/116 135/134/120 170/170/149
f 149/150/133 148/149/132 156/156/138
f 156/156/138 171/171/150 149/150/133
f 171/171/150 156/156/138 158/158/140
f 158/158/140 172/172/151 171/171/150
f 172/172/151 158/158/140 130/131/117
f 130/131/117 133/130/116 172/172/151
f 176/173/152 173/174/153 174/175/154
f 174/175/154 175/176/155 176/173/152
f 180/177/156 177/178/152 178/179/157
f 178/179/157 179/180/158 180/177/156
f 182/181/159 180/177/156 179/180/158
f 179/180/158 181/182/160 182/181/159
f 184/183/161 182/181/159 181/182/160
f 181/182/160 183/184/162 184/183/161
f 186/185/163 184/183/161 183/184/162
f 183/184/162 185/186/164 186/185/163
f 188/187/165 186/185/163 185/186/164
f 185/186/164 187/188/166 188/187/165
f 190/189/167 188/187/165 187/188/166
f 187/188/166 189/190/168 190/189/167
f 192/191/169 190/189/167 189/190/168
f 189/190/168 191/192/170 192/191/169
f 194/193/171 192/191/169 191/192/170
f 191/192/170 193/194/172 194/193/171
f 196/195/173 194/193/171 193/194/172
f 193/194/172 195/196/174 196/195/173
f 179/180/158 178/179/157 197/197/175
f 179/180/158 197/197/175 198/198/176
f 179/180/158 198/198/176 199/199/177
f 179/180/158 199/199/177 200/200/178
f 179/180/158 200/200/178 201/201/179
f 179/180/158 201/201/179 202/202/180
f 179/180/158 202/202/180 203/203/166
f 179/180/158 203/203/166 204/204/181
f 179/180/158 204/204/181 205/205/182
f 205/205/182 206/206/183 179/180/158
f 208/207/184 196/195/173 195/196/174
f 195/196/174 207/208/185 208/207/184
f 173/174/153 208/207/184 207/208/185
f 207/208/185 174/175/154 173/174/153
f 218/209/186 209/210/153 177/178/152
f 218/209/186 177/178/152 180/177/156
f 218/209/186 180/177/156 210/211/187
f 218/209/186 210/211/187 211/212/188
f 218/209/186 211/212/188 212/213/189
f 218/209/186 212/213/189 213/214/190
f 218/209/186 213/214/190 214/215/191
f 218/209/186 214/215/191 215/216/192
f 218/209/186 215/216/192 216/217/193
f 216/217/193 217/218/194 218/209/186
f 222/219/195 219/220/196 220/221/197
f 220/221/197 221/222/198 222/219/195
f 224/223/199 222/219/195 221/222/198
f 221/222/198 223/224/200 224/223/199
f 226/225/201 224/223/199 223/224/200
f 223/224/200 225/226/202 226/225/201
f 228/227/203 226/225/201 225/226/202
f 225/226/202 227/228/204 228/227/203
f 230/229/205 228/227/203 227/228/204
f 227/228/204 229/230/206 230/229/205
f 232/231/207 230/229/205 229/230/206
f 229/230/206 231/232/208 232/231/207
f 234/233/209 232/231/207 231/232/208
f 231/232/208 233/234/210 234/233/209
f 236/235/211 234/233/209 233/234/210
f 233/234/210 235/236/212 236/235/211
f 238/237/213 236/235/211 235/236/212
f 235/236/212 237/238/214 238/237/213
f 240/239/215 238/237/213 237/238/214
f 237/238/214 239/240/216 240/239/215
f 251/241/200 241/242/217 220/221/197
f 251/241/200 220/221/197 242/243/218
f 251/241/200 242/243/218 243/244/219
f 251/241/200 243/244/219 244/245/220
f 251/241/200 244/245/220 245/246/221
f 251/241/200 245/246/221 246/247/222
f 251/241/200 246/247/222 247/248/223
f 251/241/200 247/248/223 248/249/224
f 251/241/200 248/249/224 249/250/225
f 249/250/225 250/251/226 251/241/200
f 253/252/227 240/239/215 239/240/216
f 239/240/216 252/253/228 253/252/227
f 219/220/196 254/254/227 242/243/218
f 242/243/218 220/221/197 219/220/196
f 253/252/227 255/255/229 256/256/230
f 253/252/227 256/256/230 257/257/231
f 253/252/227 257/257/231 258/258/232
f 253/252/227 258/258/232 259/259/233
f 253/252/227 259/259/233 260/260/234
f 253/252/227 260/260/234 261/261/235
f 253/252/227 261/261/235 262/262/236
f 253/252/227 262/262/236 263/263/237
f 253/252/227 263/263/237 264/264/238
f 264/264/238 240/239/215 253/252/227
f 268/265/239 265/266/240 266/267/241
f 266/267/241 267/268/242 268/265/239
f 270/269/243 268/265/239 267/268/242
f 267/268/242 269/270/244 270/269/243
f 272/271/245 270/269/243 269/270/244
f 269/270/244 271/272/246 272/271/245
f 274/273/247 272/271/245 271/272/246
f 271/272/246 273/274/248 274/273/247
f 276/275/249 274/273/247 273/274/248
f 273/274/248 275/276/250 276/275/249
f 278/277/251 276/275/249 275/276/250
f 275/276/250 277/278/252 278/277/251
f 282/279/253 279/280/251 280/281/254
f 280/281/254 281/282/255 282/279/253
f 284/283/256 282/279/253 281/282/255
f 281/282/255 283/284/257 284/283/256
f 286/285/258 284/283/256 283/284/257
f 283/284/257 285/286/259 286/285/258
f 288/287/260 286/285/258 285/286/259
f 285/286/259 287/288/261 288/287/260
f 298/289/262 289/290/263 290/291/241
f 298/289/262 290/291/241 291/292/264
f 298/289/262 291/292/264 287/288/261
f 298/289/262 287/288/261 285/286/259
f 298/289/262 285/286/259 292/293/265
f 298/289/262 292/293/265 293/294/266
f 298/289/262 293/294/266 294/295/267
f 298/289/262 294/295/267 295/296/250
f 298/289/262 295/296/250 296/297/268
f 296/297/268 297/298/269 298/289/262
f 300/299/270 288/287/260 287/288/261
f 287/288/261 299/300/271 300/299/270
f 265/266/240 300/299/270 299/300/271
f 299/300/271 266/267/241 265/266/240
f 310/301/270 301/302/272 302/303/273
f 310/301/270 302/303/273 303/304/274
f 310/301/270 303/304/274 304/305/275
f 310/301/270 304/305/275 305/306/276
f 310/301/270 305/306/276 276/275/249
f 310/301/270 276/275/249 278/277/251
f 310/301/270 278/277/251 306/307/277
f 310/301/270 306/307/277 307/308/278
f 310/301/270 307/308/278 308/309/279
f 308/309/279 309/310/280 310/301/270
f 314/311/281 311/312/282 312/313/283
f 312/313/283 313/314/284 314/311/281
f 316/315/285 314/311/281 313/314/284
f 313/314/284 315/316/286 316/315/285
f 318/317/287 316/315/285 315/316/286
f 315/316/286 317/318/288 318/317/287
f 322/319/289 319/320/290 320/321/288
f 320/321/288 321/322/291 322/319/289
f 327/323/292 323/324/293 324/325/283
f 327/323/292 324/325/283 325/326/294
f 327/323/292 325/326/294 321/322/291
f 321/322/291 326/327/288 327/323/292
f 328/328/295 322/319/289 321/322/291
f 321/322/291 325/326/294 328/328/295
f 311/312/282 328/328/295 325/326/294
f 325/326/294 312/313/283 311/312/282
f 334/329/296 329/330/297 330/331/298
f 334/329/296 330/331/298 331/332/299
f 334/329/296 331/332/299 332/333/300
f 332/333/300 333/334/301 334/329/296
f 337/335/297 334/329/296 335/336/302
f 335/336/302 336/337/303 337/335/297
f 336/337/303 335/336/302 338/338/304
f 338/338/304 339/339/305 336/337/303
f 339/339/305 338/338/304 328/328/295
f 328/328/295 311/312/282 339/339/305
f 334/329/296 333/334/301 340/340/306
f 340/340/306 335/336/302 334/329/296
f 335/336/302 340/340/306 341/341/307
f 341/341/307 338/338/304 335/336/302
f 338/338/304 341/341/307 322/319/289
f 322/319/289 328/328/295 338/338/304
f 333/334/301 342/342/308 343/343/309
f 343/343/309 340/340/306 333/334/301
f 340/340/306 343/343/309 344/344/310
f 344/344/310 341/341/307 340/340/306
f 341/341/307 344/344/310 319/320/290
f 319/320/290 322/319/289 341/341/307
f 348/345/308 345/346/311 346/347/312
f 346/347/312 347/348/309 348/345/308
f 347/348/309 346/347/312 349/349/313
f 349/349/313 350/350/310 347/348/309
f 350/350/310 349/349/313 316/315/285
f 316/315/285 318/317/287 350/350/310
f 345/346/311 351/351/298 352/352/314
f 352/352/314 346/347/312 345/346/311
f 346/347/312 352/352/314 353/353/315
f 353/353/315 349/349/313 346/347/312
f 349/349/313 353/353/315 314/311/281
f 314/311/281 316/315/285 349/349/313
f 351/351/298 337/335/297 336/337/303
f 336/337/303 352/352/314 351/351/298
f 352/352/314 336/337/303 339/339/305
f 339/339/305 353/353/315 352/352/314
f 353/353/315 339/339/305 311/312/282
f 311/312/282 314/311/281 353/353/315
