# Blender 4.1.1
# www.blender.org
mtllib hlcrow.mtl
https://sketchfab.com/3d-models/half-life-crowbar-1f075567411e42eb8af3942b5e061871
o Crowbar_07_-_Default_0
v -1.328898 7.422611 8.895630
v -1.636978 7.588730 8.702002
v -1.868916 6.765132 8.777614
v -1.516035 7.192594 8.169715
v -1.207955 7.026475 8.363342
v -1.627893 6.601865 8.254053
v 0.039952 -6.478379 -6.467533
v 0.303032 -6.492222 -6.387563
v 0.230272 -6.581001 -6.347917
v 0.052929 -6.797626 -6.251438
v -0.064532 -6.606061 -6.410785
v 0.125814 -6.708697 -6.291153
v 0.553240 -6.627136 -6.230307
v 0.670767 -6.818519 -6.071066
v 0.480444 -6.715896 -6.190684
v 0.375906 -6.843548 -6.133971
v 0.566248 -6.946182 -6.014340
v 0.302985 -6.932458 -6.094277
v -0.154039 -2.937673 -2.688385
v 0.154041 -3.103791 -2.494757
v 0.154041 -3.561240 -2.887216
v -0.154039 -3.395122 -3.080844
v -0.313244 -3.471216 -2.066488
v -0.621324 -3.305098 -2.260116
v -0.621324 -3.762547 -2.652574
v -0.313244 -3.928665 -2.458946
v 0.244915 -3.338608 -2.221056
v 0.198529 -3.437473 -2.105817
v 0.198529 -3.894922 -2.498276
v 0.244916 -3.796057 -2.613514
v -2.524624 5.958467 7.954705
v -2.543628 5.988609 7.867286
v -2.155838 5.779510 8.111012
v -2.230824 5.770207 8.252569
v -0.154042 6.543925 5.446146
v 0.154038 6.377807 5.639774
v 0.154039 5.820790 5.161894
v -0.154041 5.986909 4.968266
v 0.147037 -4.803193 -3.941578
v -0.161043 -4.637074 -4.135206
v -0.313247 6.010382 6.068044
v -0.621327 6.176501 5.874416
v -0.621326 5.619484 5.396535
v -0.313246 5.453366 5.590163
v -0.621228 -5.095474 -3.796282
v -0.313148 -5.261593 -3.602654
v 0.244913 6.142990 5.913476
v 0.198526 6.044125 6.028713
v 0.198526 5.487108 5.550833
v 0.244913 5.585974 5.435596
v 0.058002 -3.943027 -2.442206
v 0.055967 -5.248662 -3.559110
v 0.195075 -5.182362 -3.597311
v -0.530158 -4.650005 -4.178750
v -0.669266 -4.716304 -4.140548
v -0.665812 -3.428864 -3.041513
v -0.525285 -3.380760 -3.097584
v -0.665812 -2.971415 -2.649055
v -0.525285 -2.923311 -2.705125
v -0.712201 6.411317 5.600714
v -0.665815 6.510183 5.485476
v -0.665814 5.953166 5.007596
v -0.712201 5.854301 5.122834
v -0.080910 -6.131880 -6.146502
v -0.530158 -4.650005 -4.178750
v -0.161043 -4.637074 -4.135206
v 0.277191 -6.091990 -6.073069
v 0.154038 6.377807 5.639774
v 0.244913 6.142990 5.913476
v 0.244913 5.585974 5.435596
v 0.154039 5.820790 5.161894
v 0.499939 -6.753963 -5.575336
v 0.055967 -5.248662 -3.559110
v -0.313148 -5.261593 -3.602654
v 0.140485 -6.790493 -5.643733
v -0.621327 6.176501 5.874416
v -0.712201 6.411317 5.600714
v -0.712201 5.854301 5.122834
v -0.621326 5.619484 5.396535
v -0.154039 -3.395122 -3.080844
v -0.525285 -3.380760 -3.097584
v -0.525285 -2.923311 -2.705125
v -0.154039 -2.937673 -2.688385
v -0.154041 5.986909 4.968266
v -0.525287 6.001271 4.951526
v -0.525287 6.558287 5.429406
v -0.154042 6.543925 5.446146
v 0.154041 -3.103791 -2.494757
v 0.244915 -3.338608 -2.221056
v 0.244916 -3.796057 -2.613514
v 0.154041 -3.561240 -2.887216
v 0.240042 -5.065302 -3.694680
v 0.147037 -4.803193 -3.941578
v -0.313244 -3.928665 -2.458946
v 0.058002 -3.943027 -2.442206
v 0.058001 -3.485578 -2.049747
v -0.313244 -3.471216 -2.066488
v -0.313246 5.453366 5.590163
v 0.057999 5.439004 5.606904
v 0.057999 5.996020 6.084784
v -0.313247 6.010382 6.068044
v -0.621324 -3.305098 -2.260116
v -0.712199 -3.070281 -2.533818
v -0.712199 -3.527730 -2.926276
v -0.621324 -3.762547 -2.652574
v -0.714233 -4.833365 -4.043180
v -0.621228 -5.095474 -3.796282
v -0.294069 7.611663 6.584985
v 0.014011 7.445544 6.778613
v -0.660538 7.570851 6.513309
v -0.294069 7.611663 6.584985
v -0.797881 7.485963 6.532755
v -0.660538 7.570851 6.513309
v -0.525287 6.558287 5.429406
v -0.745432 7.060325 6.830136
v -0.841083 7.350315 6.611369
v -0.437352 6.894206 7.023764
v -0.745432 7.060325 6.830136
v -0.070883 6.935018 7.095439
v -0.437352 6.894206 7.023764
v 0.057999 5.996020 6.084784
v 0.066460 7.019905 7.075993
v -0.070883 6.935018 7.095439
v 0.014011 7.445544 6.778613
v 0.109662 7.155554 6.997379
v -0.573718 8.231901 7.562051
v -0.265638 8.065783 7.755679
v -0.919611 8.135599 7.410032
v -0.573718 8.231901 7.562051
v -1.043237 8.013720 7.375916
v -0.919611 8.135599 7.410032
v -0.956495 7.495599 7.539392
v -1.072722 7.841079 7.400969
v -0.648415 7.329481 7.733020
v -0.956495 7.495599 7.539392
v -0.302522 7.425782 7.885038
v -0.648415 7.329481 7.733020
v -0.178896 7.547661 7.919153
v -0.302522 7.425782 7.885038
v -0.265638 8.065783 7.755679
v -0.149411 7.720302 7.894102
v -1.253033 8.079623 8.512260
v -0.944952 7.913505 8.705888
v -1.484093 8.013663 8.203563
v -1.253033 8.079623 8.512260
v -1.531163 7.912012 8.064994
v -1.484093 8.013663 8.203563
v -1.253032 7.444460 7.967336
v -1.484092 7.759599 7.985593
v -0.944952 7.278341 8.160964
v -1.253032 7.444460 7.967336
v -0.713892 7.344302 8.469663
v -0.944952 7.278341 8.160964
v -0.666822 7.445953 8.608231
v -0.713892 7.344302 8.469663
v -0.944952 7.913505 8.705888
v -0.713893 7.598366 8.687633
v -1.636978 7.588730 8.702002
v -1.328898 7.422611 8.895630
v -1.831756 7.594478 8.397095
v -1.636978 7.588730 8.702002
v -1.854637 7.540630 8.261053
v -1.831756 7.594478 8.397095
v -1.516035 7.192594 8.169715
v -1.783378 7.436024 8.184179
v -1.207955 7.026475 8.363342
v -1.516035 7.192594 8.169715
v -1.013178 7.020726 8.668250
v -1.207955 7.026475 8.363342
v -0.990296 7.074572 8.804290
v -1.013178 7.020726 8.668250
v -1.328898 7.422611 8.895630
v -1.061555 7.179181 8.881165
v -2.261780 6.963492 8.403263
v -1.868916 6.765132 8.777614
v -2.243487 6.950953 8.220441
v -2.261780 6.963492 8.403263
v -1.627893 6.601865 8.254053
v -2.118595 6.880937 8.104617
v -1.246463 6.410678 8.652750
v -1.264756 6.423216 8.835571
v -1.246463 6.410678 8.652750
v -1.389648 6.493233 8.951397
v -1.580108 5.488968 8.397385
v -1.561105 5.458827 8.484800
v -1.948896 5.667926 8.241076
v -1.873909 5.677230 8.099520
v -2.524624 5.958467 7.954705
v -2.230824 5.770207 8.252569
v -2.058312 5.776661 7.983623
v -2.455621 5.961050 7.847126
v -1.748404 6.683497 8.515833
v -2.058312 5.776661 7.983623
v -1.627893 6.601865 8.254053
v -1.580108 5.488968 8.397385
v -1.873909 5.677230 8.099520
v -2.046422 5.670776 8.368465
v -1.649114 5.486387 8.504962
v -2.046422 5.670776 8.368465
v -1.868916 6.765132 8.777614
v 0.579589 -6.255045 -5.883013
v 0.277191 -6.091990 -6.073069
v -0.161043 -4.637074 -4.135206
v 0.147037 -4.803193 -3.941578
v -0.161913 -6.627438 -5.833789
v 0.140485 -6.790493 -5.643733
v -0.313148 -5.261593 -3.602654
v -0.621228 -5.095474 -3.796282
v 0.499939 -6.753963 -5.575336
v 0.633992 -6.671803 -5.594135
v 0.195075 -5.182362 -3.597311
v 0.055967 -5.248662 -3.559110
v -0.530158 -4.650005 -4.178750
v -0.080910 -6.131880 -6.146502
v -0.214963 -6.214040 -6.127702
v -0.669266 -4.716304 -4.140548
v -0.161043 -4.637074 -4.135206
v -0.530158 -4.650005 -4.178750
v -0.313148 -5.261593 -3.602654
v 0.055967 -5.248662 -3.559110
v 0.675580 -6.539784 -5.671048
v 0.579589 -6.255045 -5.883013
v 0.147037 -4.803193 -3.941578
v 0.240042 -5.065302 -3.694680
v -0.256552 -6.346059 -6.050789
v -0.161913 -6.627438 -5.833789
v -0.621228 -5.095474 -3.796282
v -0.714233 -4.833365 -4.043180
v 0.603813 -6.438010 -6.110133
v 0.324983 -6.287663 -6.285377
v -0.079573 -6.781546 -6.065408
v 0.199257 -6.931893 -5.890163
v 0.324983 -6.287663 -6.285377
v 0.017015 -6.313047 -6.351282
v 0.694125 -6.678150 -5.925718
v 0.603813 -6.438010 -6.110133
v -0.169732 -6.541224 -6.249908
v -0.079573 -6.781546 -6.065408
v 0.199257 -6.931893 -5.890163
v 0.507379 -6.906326 -5.824346
v 0.675580 -6.539784 -5.671048
v 0.642133 -6.814549 -5.849023
v 0.694125 -6.678150 -5.925718
v -0.169732 -6.541224 -6.249908
v -0.256552 -6.346059 -6.050789
v -0.214963 -6.214040 -6.127702
v -0.117740 -6.404821 -6.326602
v 0.017015 -6.313047 -6.351282
v 0.324983 -6.287663 -6.285377
v 0.303032 -6.492222 -6.387563
v 0.039952 -6.478379 -6.467533
v 0.058001 -3.485578 -2.049747
v -2.455621 5.961050 7.847126
v 0.057999 5.439004 5.606904
v 0.240042 -5.065302 -3.694680
v -0.714233 -4.833365 -4.043180
v -0.712199 -3.527730 -2.926276
v -0.712199 -3.070281 -2.533818
v -0.525287 6.001271 4.951526
v -0.841083 7.350315 6.611369
v 0.109662 7.155554 6.997379
v -1.072722 7.841079 7.400969
v -0.149411 7.720302 7.894102
v -1.484092 7.759599 7.985593
v -0.713893 7.598366 8.687633
v -1.783378 7.436024 8.184179
v -1.061555 7.179181 8.881165
v -2.118595 6.880937 8.104617
v -1.389648 6.493233 8.951397
v -1.649114 5.486387 8.504962
v 0.633992 -6.671803 -5.594135
v 0.675580 -6.539784 -5.671048
v 0.240042 -5.065302 -3.694680
v 0.195075 -5.182362 -3.597311
v -0.714233 -4.833365 -4.043180
v -0.669266 -4.716304 -4.140548
v 0.507379 -6.906326 -5.824346
v -0.080910 -6.131880 -6.146502
v 0.017015 -6.313047 -6.351282
v -0.079573 -6.781546 -6.065408
v -0.169732 -6.541224 -6.249908
v -0.064532 -6.606061 -6.410785
v 0.052929 -6.797626 -6.251438
v 0.324983 -6.287663 -6.285377
v 0.603813 -6.438010 -6.110133
v 0.553240 -6.627136 -6.230307
v 0.303032 -6.492222 -6.387563
v 0.603813 -6.438010 -6.110133
v 0.694125 -6.678150 -5.925718
v 0.670767 -6.818519 -6.071066
v 0.553240 -6.627136 -6.230307
v 0.694125 -6.678150 -5.925718
v 0.642133 -6.814549 -5.849023
v 0.651613 -6.900175 -6.021912
v 0.670767 -6.818519 -6.071066
v 0.642133 -6.814549 -5.849023
v 0.507379 -6.906326 -5.824346
v 0.566248 -6.946182 -6.014340
v 0.651613 -6.900175 -6.021912
v 0.507379 -6.906326 -5.824346
v 0.199257 -6.931893 -5.890163
v 0.302985 -6.932458 -6.094277
v 0.566248 -6.946182 -6.014340
v 0.199257 -6.931893 -5.890163
v -0.079573 -6.781546 -6.065408
v 0.052929 -6.797626 -6.251438
v 0.302985 -6.932458 -6.094277
v -0.169732 -6.541224 -6.249908
v -0.117740 -6.404821 -6.326602
v -0.045367 -6.524359 -6.459963
v -0.064532 -6.606061 -6.410785
v -0.117740 -6.404821 -6.326602
v 0.017015 -6.313047 -6.351282
v 0.039952 -6.478379 -6.467533
v -0.045367 -6.524359 -6.459963
v 0.039952 -6.478379 -6.467533
v 0.230272 -6.581001 -6.347917
v 0.178057 -6.644831 -6.319541
v -0.045367 -6.524359 -6.459963
v -0.064532 -6.606061 -6.410785
v -0.045367 -6.524359 -6.459963
v 0.178057 -6.644831 -6.319541
v 0.125814 -6.708697 -6.291153
v 0.553240 -6.627136 -6.230307
v 0.480444 -6.715896 -6.190684
v 0.230272 -6.581001 -6.347917
v 0.303032 -6.492222 -6.387563
v 0.480444 -6.715896 -6.190684
v 0.428189 -6.779704 -6.162333
v 0.178057 -6.644831 -6.319541
v 0.230272 -6.581001 -6.347917
v 0.428189 -6.779704 -6.162333
v 0.375906 -6.843548 -6.133971
v 0.125814 -6.708697 -6.291153
v 0.178057 -6.644831 -6.319541
v 0.125814 -6.708697 -6.291153
v 0.375906 -6.843548 -6.133971
v 0.302985 -6.932458 -6.094277
v 0.052929 -6.797626 -6.251438
v 0.670767 -6.818519 -6.071066
v 0.651613 -6.900175 -6.021912
v 0.428189 -6.779704 -6.162333
v 0.480444 -6.715896 -6.190684
v 0.428189 -6.779704 -6.162333
v 0.651613 -6.900175 -6.021912
v 0.566248 -6.946182 -6.014340
v 0.375906 -6.843548 -6.133971
vn -0.4397 0.2041 0.8747
vn 0.4377 -0.2078 -0.8748
vn 0.2183 -0.5415 -0.8119
vn 0.6378 0.5015 -0.5846
vn 0.6378 0.4989 -0.5867
vn -0.6378 -0.5015 0.5846
vn 0.9564 -0.1902 0.2218
vn 0.7702 -0.4153 0.4841
vn 0.7706 -0.4151 0.4836
vn 0.9568 -0.1900 0.2202
vn -0.7586 -0.6234 -0.1893
vn -0.8492 -0.1759 -0.4980
vn 0.2066 -0.9703 0.1259
vn 0.3131 -0.9341 0.1713
vn 0.6362 0.5533 -0.5376
vn 0.6320 0.5989 -0.4918
vn -0.6360 -0.5565 0.5346
vn -0.6318 -0.6009 0.4897
vn -0.6378 -0.5016 0.5845
vn 0.9557 -0.1713 0.2394
vn 0.7857 -0.4002 0.4717
vn 0.4642 -0.5764 0.6726
vn 0.4704 -0.6131 0.6347
vn 0.7398 -0.4459 0.5038
vn -0.4702 0.6133 -0.6347
vn -0.7988 0.3837 -0.4633
vn -0.7698 0.4155 -0.4846
vn -0.4640 0.5762 -0.6728
vn -0.7702 0.4153 -0.4841
vn -0.4653 0.5763 -0.6718
vn -0.9555 0.1688 -0.2421
vn -0.7542 0.4301 -0.4961
vn -0.9564 0.1902 -0.2217
vn 0.0493 0.7803 -0.6235
vn 0.0511 0.7265 -0.6853
vn 0.0505 0.7304 -0.6811
vn 0.0511 0.7767 -0.6277
vn 0.9687 0.1990 -0.1484
vn 0.9685 0.2026 -0.1450
vn 0.9697 0.1591 -0.1855
vn -0.0293 -0.8339 0.5511
vn -0.0499 -0.7326 0.6789
vn -0.0506 -0.7286 0.6831
vn -0.0299 -0.8314 0.5548
vn -0.9684 -0.2044 0.1431
vn -0.9686 -0.2005 0.1467
vn -0.9697 -0.1591 0.1855
vn 0.0612 0.6482 -0.7590
vn 0.0593 0.6500 -0.7576
vn 0.0572 0.6940 -0.7177
vn 0.0574 0.6904 -0.7211
vn 0.9692 0.1586 -0.1884
vn 0.9692 0.1586 -0.1883
vn 0.9662 0.2330 -0.1102
vn 0.9658 0.2369 -0.1059
vn -0.0611 -0.6497 0.7578
vn -0.0611 -0.6496 0.7578
vn -0.0593 -0.6500 0.7576
vn -0.0572 -0.6920 0.7196
vn -0.0570 -0.6959 0.7159
vn -0.9692 -0.1600 0.1870
vn -0.9693 -0.1600 0.1870
vn -0.9655 -0.2388 0.1034
vn -0.9660 -0.2350 0.1078
vn 0.6170 0.6774 -0.4006
vn 0.0295 0.7939 -0.6073
vn 0.0314 0.7896 -0.6128
vn -0.7468 0.4419 -0.4969
vn -0.4807 0.6395 -0.6000
vn -0.4663 0.5954 -0.6543
vn -0.9541 -0.2989 0.0187
vn -0.9553 -0.2945 0.0256
vn -0.6148 -0.6854 0.3902
vn -0.0296 -0.7937 0.6076
vn -0.0272 -0.7987 0.6011
vn 0.4666 -0.5980 0.6517
vn 0.7925 -0.3881 0.4705
vn 0.4823 -0.6430 0.5950
vn 0.9562 0.2910 -0.0315
vn 0.9553 0.2947 -0.0251
vn 0.4830 0.8755 -0.0174
vn -0.1334 0.9498 -0.2831
vn -0.1031 0.9339 -0.3422
vn -0.7396 0.4896 -0.4618
vn -0.5461 0.6921 -0.4720
vn -0.8441 -0.4250 -0.3269
vn -0.8710 -0.4106 -0.2697
vn -0.4841 -0.8748 0.0198
vn 0.1008 -0.9346 0.3411
vn 0.1292 -0.9498 0.2848
vn 0.7955 -0.3380 0.5030
vn 0.5649 -0.7018 0.4340
vn 0.8719 0.4082 0.2706
vn 0.8435 0.4230 0.3310
vn 0.0169 0.7720 0.6354
vn -0.4646 0.8669 0.1805
vn -0.4695 0.8632 0.1856
vn -0.7658 0.4639 -0.4454
vn -0.7099 0.6649 -0.2323
vn -0.5572 -0.3865 -0.7349
vn -0.5426 -0.3779 -0.7501
vn -0.1104 -0.8343 -0.5401
vn 0.4187 -0.8963 -0.1460
vn 0.4046 -0.9051 -0.1304
vn 0.7716 -0.3650 0.5209
vn 0.6966 -0.6745 0.2445
vn 0.5014 0.3398 0.7957
vn 0.5066 0.3432 0.7909
vn -0.2438 0.5096 0.8251
vn -0.6660 0.5067 0.5475
vn -0.6660 0.5057 0.5483
vn -0.7534 0.4767 -0.4529
vn -0.8063 0.5788 -0.1219
vn -0.0897 -0.1585 -0.9833
vn -0.1016 -0.1636 -0.9813
vn 0.0909 -0.6797 -0.7278
vn 0.6460 -0.5667 -0.5114
vn 0.6485 -0.5565 -0.5193
vn 0.7831 -0.3518 0.5128
vn 0.8628 -0.4943 0.1064
vn 0.0389 0.1257 0.9913
vn 0.0400 0.1260 0.9912
vn -0.7132 0.0982 0.6940
vn -0.5350 -0.0074 0.8448
vn -0.7707 0.4570 -0.4441
vn -0.9118 0.4088 -0.0387
vn 0.4990 -0.0803 -0.8629
vn 0.2602 0.0391 -0.9648
vn 0.6959 -0.1958 -0.6909
vn 0.4990 -0.0804 -0.8629
vn 0.7671 -0.3723 0.5225
vn 0.9389 -0.3433 0.0232
vn -0.5350 -0.0075 0.8448
vn -0.3217 -0.1129 0.9401
vn 0.2599 -0.9415 -0.2144
vn 0.4171 -0.8587 0.2978
vn -0.7531 -0.4528 -0.4773
vn -0.8328 -0.2663 -0.4853
vn -0.7252 -0.1047 0.6805
vn -0.7252 -0.1048 0.6805
vn 0.3609 0.1210 -0.9247
vn -0.4361 -0.8967 -0.0755
vn 0.3467 -0.9023 0.2561
vn -0.5381 -0.8305 0.1437
vn 0.6997 -0.0616 -0.7118
vn 0.6996 -0.0616 -0.7118
vn -0.4393 -0.2589 0.8602
vn -0.7837 -0.3428 -0.5180
vn -0.2991 -0.9055 -0.3009
vn 0.6198 0.6663 -0.4145
vn 0.6319 0.5990 -0.4919
vn -0.6025 -0.7227 0.3387
vn -0.6318 -0.6010 0.4896
vn 0.5076 -0.6866 0.5205
vn 0.7876 -0.4628 0.4069
vn 0.7398 -0.4460 0.5038
vn -0.4702 0.6133 -0.6346
vn -0.4682 0.5853 -0.6619
vn -0.7462 0.3643 -0.5572
vn -0.7988 0.3838 -0.4633
vn 0.0511 0.7264 -0.6853
vn -0.0499 -0.7325 0.6789
vn 0.9549 0.2920 -0.0544
vn 0.9554 0.2892 -0.0594
vn 0.9657 0.2369 -0.1058
vn -0.9390 -0.3434 -0.0206
vn -0.9400 -0.3407 -0.0172
vn -0.9660 -0.2350 0.1077
vn -0.9655 -0.2389 0.1034
vn 0.6258 0.6387 -0.4478
vn -0.5895 -0.7533 0.2916
vn 0.0637 0.7515 -0.6567
vn 0.9585 0.2690 -0.0943
vn -0.9254 -0.3741 -0.0601
vn -0.0220 -0.8612 0.5077
vn 0.9553 -0.1823 0.2327
vn 0.8148 -0.4855 0.3168
vn 0.9564 -0.2317 0.1779
vn -0.8881 0.0480 -0.4572
vn -0.9220 0.0842 -0.3779
vn -0.7463 0.3642 -0.5571
vn -0.6986 0.3307 -0.6345
vn 0.2052 0.4981 -0.8425
vn 0.2051 0.4981 -0.8425
vn 0.4653 -0.5763 0.6718
vn -0.4910 -0.5367 -0.6863
vn 0.9532 -0.1542 0.2600
vn -0.9532 0.1545 -0.2600
vn -0.9568 0.1898 -0.2204
vn -0.9564 0.1902 -0.2218
vn -0.9449 0.1266 -0.3020
vn 0.9461 -0.1297 0.2967
vn -0.8779 0.0762 -0.4728
vn 0.8965 -0.0857 0.4347
vn -0.7437 0.1021 -0.6607
vn 0.7309 -0.1120 0.6732
vn -0.5564 0.2709 -0.7855
vn 0.6114 -0.1857 0.7692
vn -0.4119 0.3851 -0.8258
vn 0.4603 -0.3311 0.8237
vn -0.1163 -0.9698 0.2144
vn 0.7876 -0.4627 0.4069
vn 0.9553 -0.1822 0.2327
vn 0.7399 -0.4459 0.5037
vn -0.7989 0.3836 -0.4633
vn 0.5371 -0.7205 0.4386
vn -0.4682 0.5853 -0.6620
vn -0.4591 0.5316 -0.7118
vn -0.7102 -0.6147 -0.3432
vn -0.7102 -0.6147 -0.3433
vn 0.6178 0.2973 -0.7279
vn 0.9086 0.1188 -0.4004
vn 0.9623 -0.2399 0.1285
vn 0.9623 -0.2399 0.1284
vn 0.9623 -0.2399 0.1283
vn 0.5319 -0.7644 0.3645
vn 0.5318 -0.7644 0.3645
vn -0.0049 -0.9950 0.1000
vn -0.3727 -0.9090 -0.1869
vn -0.8599 -0.0140 -0.5102
vn -0.8599 -0.0139 -0.5102
vn -0.4285 0.5101 -0.7457
vn -0.4286 0.5100 -0.7458
vn -0.4286 0.5101 -0.7458
vn 0.2192 -0.5404 -0.8124
vt 0.806552 0.669467
vt 0.806552 0.757682
vt 0.917400 0.713575
vt 0.749472 0.669478
vt 0.749472 0.757694
vt 0.803648 0.713586
vt 0.757066 0.887643
vt 0.826048 0.778203
vt 0.757066 0.778194
vt 0.588912 0.778159
vt 0.658013 0.887632
vt 0.658013 0.778169
vt 0.826048 0.634314
vt 0.757066 0.524875
vt 0.757066 0.634325
vt 0.658013 0.634347
vt 0.658013 0.524885
vt 0.588912 0.634358
vt 0.104874 0.946425
vt 0.242090 0.946425
vt 0.242090 0.694348
vt 0.104874 0.694348
vt 0.584686 0.951538
vt 0.721902 0.951538
vt 0.721902 0.691309
vt 0.584686 0.691309
vt 0.344575 0.948319
vt 0.412756 0.950213
vt 0.412756 0.692721
vt 0.344575 0.693534
vt 0.936210 0.622501
vt 0.919926 0.622501
vt 0.919926 0.694401
vt 0.960636 0.694401
vt 0.095004 0.757683
vt 0.095004 0.669467
vt 0.095004 0.669467
vt 0.095004 0.757683
vt 0.242090 0.037932
vt 0.104874 0.037932
vt 0.315544 0.757694
vt 0.315544 0.669478
vt 0.315544 0.669478
vt 0.315544 0.757694
vt 0.721902 0.031827
vt 0.584686 0.031827
vt 0.161166 0.823856
vt 0.205274 0.823856
vt 0.205274 0.823856
vt 0.161166 0.823856
vt 0.481569 0.692015
vt 0.482316 0.032686
vt 0.415292 0.033494
vt 0.959619 0.030935
vt 0.892053 0.030833
vt 0.894589 0.690060
vt 0.963197 0.690060
vt 0.894589 0.952710
vt 0.963197 0.952710
vt 0.249382 0.603316
vt 0.205274 0.603316
vt 0.205274 0.603316
vt 0.722931 0.480110
vt -0.000931 0.476168
vt -0.000547 0.609045
vt 0.847153 0.610679
vt 0.161166 0.603305
vt 0.161166 0.603305
vt 0.234025 0.488738
vt 0.002155 0.484796
vt 0.001896 0.617674
vt 0.234618 0.619308
vt 0.001962 0.694348
vt 0.001962 0.946425
vt 0.161166 0.823844
vt 0.161166 0.823844
vt 0.346364 0.035687
vt 0.481569 0.950876
vt 0.249382 0.823856
vt 0.825398 0.952124
vt 0.825398 0.690685
vt 0.824651 0.031355
vt 0.174049 0.757683
vt 0.174049 0.669467
vt 0.237956 0.823844
vt 0.280561 0.603316
vt 0.237956 0.603316
vt 0.161166 0.603316
vt 0.387074 0.669478
vt 0.323166 0.603316
vt 0.387074 0.757694
vt 0.323166 0.823856
vt 0.280561 0.823856
vt 0.237956 0.603305
vt 0.327479 0.757683
vt 0.327479 0.669467
vt 0.381676 0.823844
vt 0.417807 0.603316
vt 0.381676 0.603316
vt 0.508134 0.669478
vt 0.453938 0.603316
vt 0.508134 0.757694
vt 0.453938 0.823856
vt 0.417807 0.823856
vt 0.381676 0.603305
vt 0.613683 0.757683
vt 0.613683 0.669467
vt 0.613683 0.823844
vt 0.613683 0.603316
vt 0.613683 0.603316
vt 0.613683 0.669478
vt 0.613683 0.603316
vt 0.613683 0.757694
vt 0.613683 0.823856
vt 0.613683 0.823856
vt 0.613683 0.603305
vt 0.789428 0.823844
vt 0.778012 0.603316
vt 0.789428 0.603316
vt 0.766596 0.603316
vt 0.766596 0.823856
vt 0.778012 0.823856
vt 0.789428 0.603305
vt 0.897011 0.823844
vt 0.863222 0.603316
vt 0.897011 0.603316
vt 0.829434 0.603316
vt 0.829434 0.823856
vt 0.863222 0.823856
vt 0.897011 0.603305
vt 0.903642 0.804671
vt 0.919926 0.804671
vt 0.919926 0.732770
vt 0.879217 0.732770
vt 0.936210 0.804659
vt 0.960636 0.732759
vt 0.879217 0.694401
vt 0.903642 0.622501
vt 0.860524 0.713586
vt 0.960636 0.694390
vt 0.936210 0.622490
vt 0.960636 0.732770
vt 0.917400 0.713586
vt 0.847153 0.784581
vt -0.000547 0.786215
vt 0.234618 0.793210
vt 0.001896 0.794844
vt 0.233631 0.462151
vt 0.002328 0.457727
vt 0.639688 0.453523
vt -0.001187 0.449099
vt 0.001962 0.037779
vt 0.722931 0.915151
vt -0.000931 0.919093
vt 0.234025 0.923779
vt 0.002155 0.927721
vt 0.881284 0.777805
vt 0.881284 0.617456
vt 0.489458 0.794689
vt 0.489458 0.614676
vt 0.778130 0.502935
vt 0.778130 0.892326
vt 0.490574 0.923253
vt 0.490574 0.486112
vt 0.491889 0.460488
vt 0.491529 0.459396
vt 0.492485 0.486112
vt 0.233631 0.950366
vt 0.491529 0.949969
vt 0.492485 0.923253
vt 0.860420 0.786433
vt 0.161166 0.603316
vt 0.237956 0.823856
vt 0.381676 0.823856
vt 0.613683 0.823856
vt 0.789428 0.823856
vt 0.897011 0.823856
vt 0.936210 0.804671
vt 0.639688 0.941738
vt -0.001187 0.946162
vt 0.002328 0.954790
vt 0.491889 0.948877
vt 0.860420 0.626084
vt 0.707553 0.505850
vt 0.707553 0.906667
vt 0.707553 0.778181
vt 0.707553 0.634336
s 0
usemtl 07_-_Default
f 1/1/1 2/2/1 3/3/1
f 4/4/2 5/5/2 6/6/2
f 7/7/3 8/8/3 9/9/3
f 10/10/3 11/11/3 12/12/3
f 13/13/3 14/14/3 15/15/3
f 16/16/3 17/17/3 18/18/3
s 1
f 19/19/4 20/20/4 21/21/5
f 19/19/4 21/21/5 22/22/5
s 0
f 23/23/6 24/24/6 25/25/6
f 23/23/6 25/25/6 26/26/6
s 1
f 27/27/7 28/28/8 29/29/9
f 27/27/7 29/29/9 30/30/10
f 31/31/11 32/32/12 33/33/13
f 31/31/11 33/33/13 34/34/14
f 35/35/15 36/36/15 37/37/4
f 35/35/15 37/37/4 38/38/4
f 39/39/16 40/40/16 22/22/5
f 39/39/16 22/22/5 21/21/5
f 41/41/17 42/42/17 43/43/6
f 41/41/17 43/43/6 44/44/6
f 45/45/18 46/46/18 26/26/19
f 45/45/18 26/26/19 25/25/19
f 47/47/20 48/48/21 49/49/8
f 47/47/20 49/49/8 50/50/7
f 51/51/22 52/52/23 53/53/24
f 51/51/22 53/53/24 29/29/9
f 54/54/25 55/55/26 56/56/27
f 54/54/25 56/56/27 57/57/28
f 57/57/28 56/56/27 58/58/29
f 57/57/28 58/58/29 59/59/30
f 60/60/31 61/61/32 62/62/29
f 60/60/31 62/62/29 63/60/33
f 64/63/34 65/64/35 66/65/36
f 64/63/34 66/65/36 67/66/37
f 68/36/38 69/67/39 70/68/40
f 68/36/38 70/68/40 71/37/40
f 72/69/41 73/70/42 74/71/43
f 72/69/41 74/71/43 75/72/44
f 76/42/45 77/60/46 78/60/47
f 76/42/45 78/60/47 79/43/47
f 80/22/48 81/73/48 82/74/49
f 80/22/48 82/74/49 83/19/49
f 84/38/49 85/75/49 86/76/50
f 84/38/49 86/76/50 87/35/51
f 88/20/40 89/27/40 90/30/52
f 88/20/40 90/30/52 91/21/53
f 90/30/52 92/77/54 93/39/55
f 90/30/52 93/39/55 91/21/53
f 94/26/56 95/51/57 96/78/58
f 94/26/56 96/78/58 97/23/58
f 98/44/58 99/79/58 100/79/59
f 98/44/58 100/79/59 101/41/60
f 102/24/47 103/80/47 104/81/61
f 102/24/47 104/81/61 105/25/62
f 104/81/61 106/82/63 107/45/64
f 104/81/61 107/45/64 105/25/62
f 36/36/15 35/35/15 108/83/65
f 36/36/15 108/83/65 109/84/65
f 87/35/51 86/76/50 110/85/66
f 87/35/51 110/85/66 111/83/67
f 61/61/32 112/86/68 113/87/69
f 61/61/32 113/87/69 114/88/70
f 77/60/46 76/42/45 115/89/71
f 77/60/46 115/89/71 116/90/72
f 42/42/17 41/41/17 117/91/73
f 42/42/17 117/91/73 118/89/73
f 101/41/60 100/79/59 119/92/74
f 101/41/60 119/92/74 120/91/75
f 121/79/76 48/48/21 122/93/77
f 121/79/76 122/93/77 123/92/78
f 69/67/39 68/36/38 124/84/79
f 69/67/39 124/84/79 125/94/80
f 109/84/65 108/83/65 126/95/81
f 109/84/65 126/95/81 127/96/81
f 111/83/67 110/85/66 128/97/82
f 111/83/67 128/97/82 129/95/83
f 112/86/68 130/98/84 131/99/85
f 112/86/68 131/99/85 113/87/69
f 116/90/72 115/89/71 132/100/86
f 116/90/72 132/100/86 133/101/87
f 118/89/73 117/91/73 134/102/88
f 118/89/73 134/102/88 135/100/88
f 120/91/75 119/92/74 136/103/89
f 120/91/75 136/103/89 137/102/90
f 123/92/78 122/93/77 138/104/91
f 123/92/78 138/104/91 139/103/92
f 125/94/80 124/84/79 140/96/93
f 125/94/80 140/96/93 141/105/94
f 127/96/81 126/95/81 142/106/95
f 127/96/81 142/106/95 143/107/95
f 129/95/83 128/97/82 144/108/96
f 129/95/83 144/108/96 145/106/97
f 130/98/84 146/109/98 147/110/99
f 130/98/84 147/110/99 131/99/85
f 133/101/87 132/100/86 148/111/100
f 133/101/87 148/111/100 149/112/101
f 135/100/88 134/102/88 150/113/102
f 135/100/88 150/113/102 151/111/102
f 137/102/90 136/103/89 152/114/103
f 137/102/90 152/114/103 153/113/104
f 139/103/92 138/104/91 154/115/105
f 139/103/92 154/115/105 155/114/106
f 141/105/94 140/96/93 156/107/107
f 141/105/94 156/107/107 157/116/108
f 143/107/95 142/106/95 158/2/109
f 143/107/95 158/2/109 159/1/109
f 145/106/97 144/108/96 160/117/110
f 145/106/97 160/117/110 161/2/111
f 146/109/98 162/118/112 163/119/113
f 146/109/98 163/119/113 147/110/99
f 149/112/101 148/111/100 164/4/114
f 149/112/101 164/4/114 165/120/115
f 151/111/102 150/113/102 166/5/116
f 151/111/102 166/5/116 167/4/116
f 153/113/104 152/114/103 168/121/117
f 153/113/104 168/121/117 169/5/118
f 155/114/106 154/115/105 170/122/119
f 155/114/106 170/122/119 171/121/120
f 157/116/108 156/107/107 172/1/121
f 157/116/108 172/1/121 173/123/122
f 161/2/111 160/117/110 174/124/123
f 161/2/111 174/124/123 175/3/124
f 163/119/113 162/118/112 176/125/125
f 163/119/113 176/125/125 177/126/126
f 165/120/115 164/4/114 178/6/127
f 165/120/115 178/6/127 179/127/128
f 169/5/118 168/121/117 180/128/129
f 169/5/118 180/128/129 178/6/130
f 170/122/119 181/129/131 182/128/132
f 170/122/119 182/128/132 171/121/120
f 173/123/122 172/1/121 175/3/133
f 173/123/122 175/3/133 183/130/134
f 184/131/135 185/132/136 186/133/137
f 184/131/135 186/133/137 187/134/138
f 175/3/124 174/124/123 188/135/139
f 175/3/124 188/135/139 189/136/140
f 176/125/125 32/32/12 31/31/11
f 176/125/125 31/31/11 177/126/126
f 179/127/128 178/6/127 190/137/141
f 179/127/128 190/137/141 191/138/141
f 192/139/142 33/33/13 193/137/143
f 192/139/142 193/137/143 194/6/144
f 178/6/130 180/128/129 195/131/145
f 178/6/130 195/131/145 196/134/146
f 181/129/131 185/132/136 184/131/135
f 181/129/131 184/131/135 182/128/132
f 183/130/134 175/3/133 197/140/147
f 183/130/134 197/140/147 198/141/147
f 192/139/142 186/133/137 199/142/148
f 192/139/142 199/142/148 200/143/149
f 201/144/150 202/66/150 203/65/16
f 201/144/150 203/65/16 204/145/151
f 205/146/152 206/72/152 207/71/153
f 205/146/152 207/71/153 208/147/153
f 209/69/154 210/148/155 211/149/156
f 209/69/154 211/149/156 212/70/23
f 213/64/157 214/63/158 215/150/159
f 213/64/157 215/150/159 216/151/160
f 81/73/48 80/22/48 217/40/36
f 81/73/48 217/40/36 218/152/161
f 95/51/57 94/26/56 219/46/43
f 95/51/57 219/46/43 220/52/162
f 221/153/163 222/144/164 223/145/165
f 221/153/163 223/145/165 224/154/54
f 225/155/166 226/146/167 227/147/168
f 225/155/166 227/147/168 228/156/169
f 201/144/150 229/157/170 230/158/170
f 201/144/150 230/158/170 202/66/150
f 205/146/152 231/159/171 232/160/171
f 205/146/152 232/160/171 206/72/152
f 67/66/37 233/158/172 234/161/172
f 67/66/37 234/161/172 64/63/34
f 221/153/163 235/162/173 236/157/173
f 221/153/163 236/157/173 222/144/164
f 225/155/166 237/163/174 238/159/174
f 225/155/166 238/159/174 226/146/167
f 75/72/44 239/160/175 240/164/175
f 75/72/44 240/164/175 72/69/41
f 241/165/176 210/148/155 242/166/177
f 241/165/176 242/166/177 243/167/178
f 244/163/179 245/155/180 246/168/181
f 244/163/179 246/168/181 247/169/182
f 248/170/183 249/171/184 250/8/183
f 248/170/183 250/8/183 251/7/183
f 252/78/185 51/51/22 29/29/9
f 252/78/185 29/29/9 28/28/8
f 253/138/186 193/137/143 33/33/13
f 253/138/186 33/33/13 32/32/12
f 121/79/76 254/79/185 49/49/8
f 121/79/76 49/49/8 48/48/21
f 255/77/187 30/30/10 29/29/9
f 255/77/187 29/29/9 53/53/24
f 55/55/26 256/82/188 257/81/189
f 55/55/26 257/81/189 56/56/27
f 257/81/189 258/80/190 58/58/29
f 257/81/189 58/58/29 56/56/27
f 114/88/70 259/172/30 62/62/29
f 114/88/70 62/62/29 61/61/32
f 60/60/31 260/90/191 112/86/68
f 60/60/31 112/86/68 61/61/32
f 48/48/21 47/47/20 261/173/192
f 48/48/21 261/173/192 122/93/77
f 260/90/191 262/101/193 130/98/84
f 260/90/191 130/98/84 112/86/68
f 122/93/77 261/173/192 263/174/194
f 122/93/77 263/174/194 138/104/91
f 262/101/193 264/112/195 146/109/98
f 262/101/193 146/109/98 130/98/84
f 138/104/91 263/174/194 265/175/196
f 138/104/91 265/175/196 154/115/105
f 264/112/195 266/120/197 162/118/112
f 264/112/195 162/118/112 146/109/98
f 154/115/105 265/175/196 267/176/198
f 154/115/105 267/176/198 170/122/119
f 162/118/112 266/120/197 268/127/199
f 162/118/112 268/127/199 176/125/125
f 267/176/198 269/177/200 181/129/131
f 267/176/198 181/129/131 170/122/119
f 270/178/201 199/142/148 186/133/137
f 270/178/201 186/133/137 185/132/136
f 268/127/199 253/138/186 32/32/12
f 268/127/199 32/32/12 176/125/125
f 192/139/142 200/143/149 34/34/14
f 192/139/142 34/34/14 33/33/13
f 181/129/131 269/177/200 270/178/201
f 181/129/131 270/178/201 185/132/136
f 192/139/142 194/6/144 187/134/138
f 192/139/142 187/134/138 186/133/137
f 271/179/202 272/153/203 273/154/187
f 271/179/202 273/154/187 274/180/204
f 245/155/180 275/156/188 276/181/205
f 245/155/180 276/181/205 246/168/181
f 210/148/155 209/69/154 277/164/206
f 210/148/155 277/164/206 242/166/177
f 278/182/207 279/170/208 247/169/182
f 278/182/207 247/169/182 246/168/181
f 280/159/209 281/163/209 282/11/209
f 280/159/209 282/11/209 283/10/210
s 0
f 284/171/211 285/183/211 286/13/211
f 284/171/211 286/13/211 287/8/211
s 1
f 288/183/212 289/167/212 290/14/212
f 288/183/212 290/14/212 291/13/212
f 292/167/213 293/166/214 294/184/214
f 292/167/213 294/184/214 295/14/215
f 296/166/216 297/164/216 298/17/216
f 296/166/216 298/17/216 299/184/217
f 300/164/218 301/160/218 302/18/218
f 300/164/218 302/18/218 303/17/218
s 0
f 304/160/219 305/159/219 306/10/219
f 304/160/219 306/10/219 307/18/219
s 1
f 308/163/220 309/169/221 310/185/221
f 308/163/220 310/185/221 311/11/221
f 312/169/222 313/170/223 314/7/224
f 312/169/222 314/7/224 315/185/224
s 0
f 316/7/225 317/9/225 318/186/225
f 316/7/225 318/186/225 319/185/225
f 320/11/225 321/185/225 322/186/225
f 320/11/225 322/186/225 323/12/225
f 324/13/3 325/15/3 326/9/3
f 324/13/3 326/9/3 327/8/3
f 328/15/225 329/187/225 330/186/225
f 328/15/225 330/186/225 331/9/225
f 332/187/225 333/16/225 334/12/225
f 332/187/225 334/12/225 335/186/225
f 336/12/3 337/16/3 338/18/3
f 336/12/3 338/18/3 339/10/3
f 340/14/225 341/184/225 342/187/225
f 340/14/225 342/187/225 343/15/225
f 344/187/225 345/184/225 346/17/225
f 344/187/225 346/17/225 347/16/225
o Crowbar_08_-_Default_0
v -0.525285 -2.923311 -2.705125
v -0.665812 -2.971415 -2.649055
v -0.665814 5.953166 5.007596
v -0.525287 6.001271 4.951526
v -0.154041 5.986909 4.968266
v 0.154039 5.820790 5.161894
v 0.154041 -3.103791 -2.494757
v -0.154039 -2.937673 -2.688385
v -0.313246 5.453366 5.590163
v -0.621326 5.619484 5.396535
v -0.621324 -3.305098 -2.260116
v -0.313244 -3.471216 -2.066488
v 0.244913 5.585974 5.435596
v 0.198526 5.487108 5.550833
v 0.198529 -3.437473 -2.105817
v 0.244915 -3.338608 -2.221056
v -0.154039 -2.937673 -2.688385
v -0.525285 -2.923311 -2.705125
v -0.525287 6.001271 4.951526
v -0.154041 5.986909 4.968266
v 0.154039 5.820790 5.161894
v 0.244913 5.585974 5.435596
v 0.244915 -3.338608 -2.221056
v 0.154041 -3.103791 -2.494757
v -0.313244 -3.471216 -2.066488
v 0.058001 -3.485578 -2.049747
v 0.057999 5.439004 5.606904
v -0.313246 5.453366 5.590163
v -0.621326 5.619484 5.396535
v -0.712201 5.854301 5.122834
v -0.712199 -3.070281 -2.533818
v -0.621324 -3.305098 -2.260116
v -0.712199 -3.070281 -2.533818
v -0.712201 5.854301 5.122834
v 0.057999 5.439004 5.606904
v 0.058001 -3.485578 -2.049747
vn -0.4653 0.5763 -0.6718
vn -0.7702 0.4153 -0.4841
vn 0.6378 0.5015 -0.5846
vn -0.6378 -0.5015 0.5846
vn 0.9564 -0.1902 0.2218
vn 0.7702 -0.4153 0.4841
vn 0.0593 0.6500 -0.7576
vn 0.9697 0.1591 -0.1855
vn -0.0593 -0.6500 0.7576
vn -0.9697 -0.1591 0.1855
vn -0.9564 0.1902 -0.2217
vn 0.4653 -0.5763 0.6718
vt 0.085892 0.019019
vt 0.072076 0.019019
vt 0.072076 0.966578
vt 0.085892 0.966578
vt 0.203881 0.019019
vt 0.176250 0.019019
vt 0.176250 0.966578
vt 0.203881 0.966578
vt 0.204298 0.966578
vt 0.231929 0.966578
vt 0.231929 0.019019
vt 0.204298 0.019019
vt 0.155248 0.019019
vt 0.141433 0.019019
vt 0.141433 0.966578
vt 0.155248 0.966578
vt 0.106615 0.019019
vt 0.106616 0.966578
vt 0.175972 0.019019
vt 0.175972 0.966578
vt 0.106893 0.966578
vt 0.127617 0.966578
vt 0.127617 0.019019
vt 0.106893 0.019019
vt 0.037537 0.966578
vt 0.058261 0.966578
vt 0.058261 0.019019
vt 0.037537 0.019019
s 1
usemtl 08_-_Default
f 348/188/226 349/189/227 350/190/227
f 348/188/226 350/190/227 351/191/226
s 0
f 352/192/228 353/193/228 354/194/228
f 352/192/228 354/194/228 355/195/228
f 356/196/229 357/197/229 358/198/229
f 356/196/229 358/198/229 359/199/229
s 1
f 360/200/230 361/201/231 362/202/231
f 360/200/230 362/202/231 363/203/230
s 0
f 364/204/232 365/188/232 366/191/232
f 364/204/232 366/191/232 367/205/232
f 368/206/233 369/200/233 370/203/233
f 368/206/233 370/203/233 371/207/233
f 372/208/234 373/209/234 374/210/234
f 372/208/234 374/210/234 375/211/234
f 376/212/235 377/213/235 378/214/235
f 376/212/235 378/214/235 379/215/235
s 1
f 380/214/236 381/213/236 350/190/227
f 380/214/236 350/190/227 349/189/227
f 382/210/237 383/209/237 362/202/231
f 382/210/237 362/202/231 361/201/231
